<svg width="130" height="72" viewBox="0 0 130 72" fill="none" xmlns="http://www.w3.org/2000/svg">
<path d="M64.3401 71.0137C56.5574 71.0137 48.8814 69.1453 42.1649 65.3017C29.6913 58.2017 23.1347 48.9663 19.7231 40.9054C9.59504 43.3077 0.639669 41.9197 0 41.8129L1.43926 32.8445C1.54587 32.8445 8.79545 33.9656 16.9512 32.1505C14.9256 22.5415 15.9917 12.5588 19.7764 6.25954C22.2818 2.09563 26.7595 -0.199854 31.7169 0.0136796C37.1008 0.280597 42.0583 3.59037 44.2971 8.39488C45.843 11.7047 47.4955 18.5377 40.8855 27.4528C37.314 32.3107 32.8897 35.6205 28.2521 37.8626C31.1306 44.322 36.5145 51.6889 46.6426 57.4009C59.0095 64.4475 75.481 63.2197 87.6347 54.358C93.2851 50.2475 98.1893 44.5889 101.601 38.5032C98.669 37.222 95.8971 35.4069 93.4983 32.8979C88.9674 28.1468 84.543 20.4062 85.769 12.8257C86.5686 7.86105 89.9802 3.69714 94.7244 1.93548C99.362 0.17383 104.373 1.02797 108.157 4.17759C115.354 10.2099 116.686 21.5272 114.821 29.5347C114.607 30.4956 114.341 31.4565 114.074 32.3641C117.912 32.7911 121.964 32.7911 125.855 32.7911C126.921 32.7911 127.987 32.7911 129.053 32.7911L129 41.8663C127.987 41.8663 126.974 41.8663 125.908 41.8663C121.111 41.8663 115.78 41.9197 110.556 41.0656C106.452 49.0731 100.268 56.44 93.0186 61.725C84.543 67.8641 74.3616 71.0137 64.3401 71.0137ZM99.6285 10.1565C98.8822 10.1565 98.2959 10.3167 97.9227 10.4768C96.2169 11.1174 95.0442 12.5588 94.7244 14.3204C94.0847 18.3242 97.0165 23.5024 100.055 26.652C101.548 28.2001 103.307 29.3746 105.226 30.2287C105.492 29.3212 105.759 28.4137 105.972 27.5062C107.251 22.1144 106.398 14.5874 102.347 11.2242C101.441 10.3701 100.481 10.1565 99.6285 10.1565ZM30.9707 9.08887C29.8512 9.08887 28.4653 9.46255 27.5058 11.0107C25.4802 14.3738 24.1475 21.2603 25.5335 29.0543C28.5186 27.3994 31.3438 25.1573 33.5826 22.1144C36.4079 18.3242 37.2607 14.8543 36.088 12.3453C35.2351 10.5302 33.2628 9.24902 31.2372 9.14225C31.1839 9.08887 31.0773 9.08887 30.9707 9.08887Z" fill="#0E1F35"/>
</svg>
