<svg width="163" height="114" viewBox="0 0 163 114" fill="none" xmlns="http://www.w3.org/2000/svg">
<path d="M3.28711 43.5447C3.28711 43.5447 14.737 48.2105 18.2436 34.7773" stroke="#EF8057" stroke-width="6" stroke-miterlimit="10" stroke-linecap="round"/>
<path d="M159.713 43.2094C159.713 43.2094 148.431 48.2716 144.467 34.9604" stroke="#EF8057" stroke-width="6" stroke-miterlimit="10" stroke-linecap="round"/>
<path d="M91.4559 4.67851C94.2308 4.92248 95.9231 5.07495 97.6154 5.21218C99.6736 5.37991 102.128 5.65436 101.671 8.30745C101.503 9.29854 99.0028 10.1524 97.4477 10.5641C96.2432 10.869 94.7644 10.5793 93.5142 10.2134C84.8391 7.66705 75.8438 5.86783 67.6414 2.26939C55.3224 -3.12827 42.3936 1.96444 37.5606 15.8855C33.0934 28.7698 33.9472 41.654 40.5031 53.8063C42.9882 58.4111 44.086 63.0464 43.9487 68.3068C43.6591 78.9954 44.3299 89.7145 48.0805 99.8237C49.6661 104.093 52.3037 108.088 55.0327 111.793C56.0237 113.15 58.8138 114.111 60.4451 113.745C61.5276 113.501 62.4576 110.649 62.6863 108.866C63.0675 105.846 62.4424 102.675 62.9608 99.6864C63.9823 93.8161 64.897 87.8085 66.9553 82.2584C70.218 73.4605 78.1003 69.6334 86.0893 72.2255C91.9438 74.1162 95.5572 78.6752 96.7921 84.2558C98.5454 92.1236 99.079 100.251 100.36 108.24C100.39 108.408 100.451 108.576 100.482 108.744C100.924 110.238 102.631 114.477 107.495 111.976C107.785 111.778 108.09 111.58 108.318 111.32C110.559 108.759 112.496 105.74 113.807 102.599C118.426 91.4222 118.853 79.5901 119.158 67.6664C119.265 63.1836 120.302 58.3349 122.314 54.3553C128.519 42.1419 129.526 29.6389 125.745 16.7241C121.247 1.36978 106.031 -4.31758 91.4559 4.67851Z" fill="#97C9DD"/>
<path d="M52.1968 30.8586C52.1968 30.8586 58.3562 21.6796 67.5345 30.8586" stroke="#0E1F35" stroke-width="3" stroke-miterlimit="10" stroke-linecap="round"/>
<path d="M89.169 47.9512C89.169 47.9512 83.0095 57.1302 73.8313 47.9512" stroke="#0E1F35" stroke-width="3" stroke-miterlimit="10" stroke-linecap="round"/>
<path d="M96.3193 30.8586C96.3193 30.8586 102.479 21.6796 111.657 30.8586" stroke="#0E1F35" stroke-width="3" stroke-miterlimit="10" stroke-linecap="round"/>
<path d="M150.001 45.2065C150.001 72.9572 119.082 95.4475 80.9359 95.4475C42.7899 95.4475 11.8706 72.9572 11.8706 45.2065" stroke="#EF8057" stroke-width="6" stroke-miterlimit="10" stroke-linecap="round"/>
</svg>
