<?xml version="1.0" encoding="utf-8"?>
<!-- Generator: Adobe Illustrator 25.2.1, SVG Export Plug-In . SVG Version: 6.00 Build 0)  -->
<svg version="1.1" id="Capa_1" xmlns="http://www.w3.org/2000/svg" xmlns:xlink="http://www.w3.org/1999/xlink" x="0px" y="0px"
	 viewBox="0 0 56 31" style="enable-background:new 0 0 56 31;" xml:space="preserve">
<style type="text/css">
	.st0{fill:#111F35;}
	.st1{fill:#FFFFFF;}
	.st2{fill:none;stroke:#111F35;stroke-width:3;stroke-linecap:round;stroke-miterlimit:10;}
	.st3{fill:#669BBA;}
	.st4{fill:none;}
	.st5{fill:#96C9DA;}
	.st6{fill:#F5F4F4;}
	.st7{fill:#97CAE1;}
	.st8{fill:#0E1F35;}
	.st9{fill:#EE8057;}
</style>
<g>
	<g>
		<g>
			<path class="st0" d="M-125.44-328.15c-0.29,0.66-0.92,1.06-1.58,1.06c-0.23,0-0.47-0.05-0.69-0.15
				c-1.02-0.46-2.01-0.95-2.96-1.46c-0.1-1.37-0.15-2.75-0.17-4.13c1.42,0.84,2.93,1.62,4.51,2.34
				C-125.46-330.09-125.06-329.05-125.44-328.15z"/>
		</g>
	</g>
	<path class="st1" d="M-114.32-382.21l10.82,3.28c0,0,7.14-4.98,9.48-5.04c2.34-0.06,11.78,0,12.49,2.52
		c0.71,2.52,5.9,9.44,5.9,14.11c0,4.66-0.11,16.68-4.77,25.35c0,0-1.12,24.92-3.72,28.56c-2.59,3.64-4.35,8.98-8.07,8.98
		s-4.25-22.28-9.19-26.44c-4.93-4.16-9.98-1.21-9.98-1.21s-5.52,10.61-5.89,17.07s-0.36,14.03-6.97,7.96
		c-6.61-6.07-6.89-15.81-8.75-33.28c-1.86-17.47-8.87-11.89-3.6-34.2c0,0,10.33-13,19.32-9.4
		C-108.26-380.37-114.32-382.21-114.32-382.21z"/>
	<path class="st0" d="M-125.42-358.48c-0.33,0-0.66-0.1-0.96-0.3c-0.79-0.55-1-1.65-0.47-2.46c0.08-0.13,2.07-3.11,5.47-3.45
		c2.39-0.24,4.75,0.83,7.03,3.18c0.67,0.69,0.67,1.81,0,2.5c-0.67,0.69-1.76,0.69-2.44,0c-1.52-1.57-2.97-2.3-4.26-2.16
		c-1.75,0.18-2.94,1.88-2.95,1.9C-124.32-358.76-124.87-358.48-125.42-358.48z"/>
	<path class="st2" d="M-101.66-348.96c0,0-3.96,6.07-9.86,0"/>
	<path class="st0" d="M-97.06-358.48c-0.33,0-0.66-0.1-0.96-0.3c-0.79-0.55-1-1.65-0.47-2.46c0.08-0.13,2.07-3.11,5.47-3.45
		c2.39-0.24,4.75,0.83,7.03,3.18c0.67,0.69,0.67,1.81,0,2.5c-0.67,0.69-1.76,0.69-2.44,0c-1.52-1.57-2.97-2.3-4.26-2.16
		c-1.75,0.18-2.94,1.88-2.95,1.9C-95.96-358.76-96.51-358.48-97.06-358.48z"/>
	<path class="st0" d="M-66.33-337.51c-0.57-0.78-1.65-0.94-2.41-0.36c-4.79,3.66-8.85,3.91-10.48,3.83
		c0.04-1.24,0.06-2.49,0.09-3.73c0.05-2.12,0.39-4.47,1.34-6.3c4.45-8.49,5.48-17.33,3.27-26.62c-2.5-10.55-12.78-19.34-25.06-13.01
		c-4.82,2.49-9.39,2.49-14.24,0.01c-12.53-6.42-22.42,2.7-24.84,12.22c-2.37,9.31-1.66,18.27,2.76,26.92
		c1.06,2.08,1.4,4.65,1.65,7.04c0.09,0.86,0.16,1.73,0.21,2.59c-8.18-5.89-12.86-13.95-12.86-22.6c0-0.03,0-0.05-0.01-0.08
		c1.95-1.27,3.32-3.43,4.08-6.43c0.24-0.95-0.31-1.91-1.24-2.16c-0.91-0.24-1.86,0.32-2.1,1.27c-0.58,2.29-1.57,3.82-2.94,4.54
		c-2.02,1.05-4.38,0.13-4.43,0.11c-0.88-0.36-1.88,0.07-2.24,0.97c-0.36,0.91,0.06,1.94,0.94,2.31c0.1,0.04,1.59,0.65,3.54,0.65
		c0.31,0,0.64-0.02,0.97-0.05c0.42,10.19,6.43,19.49,16.55,25.88c0.17,3.03,0.34,6.05,0.78,9.04c0.92,6.23,2.94,12.15,7.78,16.53
		c1.91,1.73,4.14,2.13,6.47,1.18c2.35-0.96,3.21-3.05,3.38-5.47c0.11-1.49,0.02-2.99,0.02-4.49c-0.01,0-0.02-0.01-0.03-0.01
		c0.19-2.34,0.62-5.42,0.62-5.42v-0.05c0.69-2.91,1.43-5.8,2.49-8.55c1.52-3.86,5.94-5.02,8.78-2.74c1.35,1.08,2.47,2.73,3.16,4.37
		c2.18,5.2,2.37,10.76,2.28,16.35c-0.05,2.65,0.78,4.93,3.35,6c2.55,1.06,5,0.56,6.83-1.52c1.6-1.8,3.15-3.77,4.21-5.92
		c3.05-6.13,3.95-12.67,4.3-19.31c0.18,0.02,0.37,0.02,0.58,0.02c2.45,0,7.01-0.64,12.1-4.53
		C-65.92-335.62-65.76-336.72-66.33-337.51z M-80.46-346.36c-1.3,2.63-1.96,5.83-2.03,8.8c-0.2,7.88-0.47,15.69-3.44,23.08
		c-0.83,2.08-2.09,4.07-3.53,5.76c-0.15,0.19-0.33,0.34-0.53,0.47c-3.07,1.56-4.2-1.08-4.5-2.12c-0.04-0.13-0.07-0.26-0.09-0.39
		c-0.81-5.27-1.17-10.65-2.29-15.85c-0.8-3.69-3.12-6.7-6.88-7.95c-5.14-1.71-10.2,0.81-12.3,6.63c-1.31,3.67-1.9,7.64-2.56,11.52
		c-0.33,1.96,0.07,4.06-0.17,6.05c-0.15,1.18-0.75,3.06-1.44,3.23c-1.05,0.25-2.84-0.4-3.48-1.28c-1.74-2.45-3.44-5.09-4.47-7.91
		c-1.45-4.02-2.18-8.17-2.5-12.38c-0.1-1.37-0.15-2.75-0.17-4.13c-0.03-1.44-0.02-2.88,0.02-4.32c0.09-3.49-0.62-6.55-2.22-9.59
		c-4.21-8.03-4.76-16.55-1.89-25.06c3.1-9.2,11.41-12.58,19.33-9.01c5.27,2.38,11.05,3.58,16.62,5.25c0.8,0.24,1.75,0.44,2.53,0.23
		c1.01-0.26,2.6-0.83,2.71-1.48c0.3-1.75-1.27-1.94-2.6-2.05c-1.08-0.09-2.17-0.19-3.95-0.35c9.35-5.94,19.13-2.2,22.03,7.98
		C-75.83-362.69-76.47-354.43-80.46-346.36z"/>
	<g>
		<path class="st3" d="M-90.31-332.6c-0.85,1.33-1.99,2.13-3.46,2.43c-9.02,1.86-12.34,1.46-12.36,1.46l-0.12-0.02h-0.13
			c-2.62,0.07-9.98-0.08-12.68-1.55c-3.04-1.66-4.6-2.53-5.09-17.45l17.78-2.71l17.34,2.75C-88.41-344.06-87.81-336.5-90.31-332.6z"
			/>
	</g>
	<g>
		<path class="st0" d="M-81.35-337.87l-4.61,1.72c0.85-4.69,0.2-9.88-0.17-12.1l11-6.33l-0.73-1.31l-0.72-1.32l-11.47,6.61
			l-18.31-2.9l-19.01,2.9l-11.25-6.61l-0.73,1.32l-0.73,1.31l10.96,6.44c0.18,5.44,0.5,9.27,1.01,12.04l-4.91-1.78l-0.49,1.43
			l-0.5,1.42l6.85,2.49c1.09,2.76,2.64,3.78,4.75,4.95c3.7,2.03,12.58,1.92,13.99,1.89c0.21,0.02,0.61,0.05,1.25,0.05
			c1.82,0,5.54-0.23,11.95-1.55c2.25-0.46,4.05-1.72,5.34-3.74c0.32-0.5,0.6-1.04,0.83-1.6l6.67-2.5l-0.51-1.41L-81.35-337.87z
			 M-90.31-332.6c-0.85,1.33-1.99,2.13-3.46,2.43c-9.02,1.86-12.34,1.46-12.36,1.46l-0.12-0.02h-0.13
			c-2.62,0.07-9.98-0.08-12.68-1.55c-3.04-1.66-4.6-2.53-5.09-17.45l17.78-2.71l17.34,2.75C-88.41-344.06-87.81-336.5-90.31-332.6z"
			/>
	</g>
	<g>
		<line class="st4" x1="-117.1" y1="-343.71" x2="-95.63" y2="-343.71"/>
		<path class="st0" d="M-95.63-342.2h-21.47c-0.81,0-1.47-0.68-1.47-1.51s0.66-1.51,1.47-1.51h21.47c0.81,0,1.47,0.68,1.47,1.51
			S-94.82-342.2-95.63-342.2z"/>
	</g>
	<g>
		<line class="st4" x1="-117.1" y1="-336.46" x2="-95.63" y2="-336.46"/>
		<path class="st0" d="M-95.63-334.95h-21.47c-0.81,0-1.47-0.68-1.47-1.51s0.66-1.51,1.47-1.51h21.47c0.81,0,1.47,0.68,1.47,1.51
			S-94.82-334.95-95.63-334.95z"/>
	</g>
	<g>
		<path class="st5" d="M-67.72-357.31l-5.16,15.43c-0.51,1.53,0.3,3.2,1.8,3.7l10,3.3c1.43,0.47,2.96-0.29,3.49-1.74l5.65-15.47
			c0.57-1.57-0.26-3.3-1.82-3.79l-10.49-3.26C-65.69-359.59-67.23-358.78-67.72-357.31z"/>
		<path class="st0" d="M-60.21-333.24c-0.43,0-0.88-0.07-1.31-0.21l-10-3.3c-1.11-0.37-2-1.15-2.52-2.22
			c-0.52-1.07-0.6-2.28-0.22-3.41l5.16-15.43c0.75-2.25,3.08-3.47,5.29-2.78l10.49,3.26c1.13,0.35,2.08,1.18,2.6,2.27
			c0.52,1.09,0.58,2.36,0.17,3.5l-5.65,15.47C-56.85-334.33-58.47-333.24-60.21-333.24z M-65.06-357.75c-0.56,0-1.07,0.36-1.27,0.93
			l-5.16,15.43c-0.12,0.35-0.09,0.73,0.07,1.07s0.44,0.58,0.79,0.7l10,3.3c0.68,0.23,1.42-0.14,1.67-0.83l5.65-15.47
			c0.13-0.36,0.11-0.75-0.05-1.1c-0.17-0.35-0.46-0.6-0.82-0.71l-10.49-3.26C-64.8-357.73-64.93-357.75-65.06-357.75z
			 M-67.72-357.31L-67.72-357.31L-67.72-357.31z"/>
	</g>
	<path class="st0" d="M-58.88-362.22l3.05,0.92c1.4,0.42,2.19,1.93,1.77,3.36l-0.87,2.94c-0.42,1.42-1.89,2.22-3.27,1.78l-3.13-1
		c-1.41-0.45-2.17-2.01-1.69-3.44l0.95-2.85C-61.62-361.87-60.22-362.62-58.88-362.22z"/>
	<path class="st6" d="M-58.72-359.96l1.53,0.46c0.7,0.21,1.09,0.96,0.88,1.68l-0.44,1.47c-0.21,0.71-0.95,1.11-1.64,0.89l-1.57-0.5
		c-0.7-0.22-1.09-1-0.85-1.72l0.48-1.43C-60.09-359.79-59.39-360.16-58.72-359.96z"/>
</g>
<g>
	<circle class="st0" cx="-268.21" cy="-151.02" r="78"/>
	<g>
		<g>
			<path class="st7" d="M-261.48-182.66c1.78,0.16,2.86,0.26,3.94,0.35c1.32,0.11,2.89,0.29,2.59,2.03c-0.11,0.65-1.7,1.21-2.7,1.48
				c-0.77,0.2-1.72,0.01-2.52-0.23c-5.54-1.66-11.29-2.85-16.54-5.21c-7.89-3.54-16.16-0.2-19.24,8.94
				c-2.85,8.45-2.31,16.9,1.88,24.88c1.59,3.02,2.3,6.06,2.2,9.52c-0.19,7.01,0.24,14.04,2.65,20.68c1.02,2.81,2.71,5.42,4.45,7.85
				c0.63,0.89,2.42,1.52,3.46,1.28c0.7-0.16,1.29-2.03,1.43-3.2c0.25-1.98-0.15-4.06,0.18-6.02c0.65-3.85,1.24-7.79,2.55-11.43
				c2.09-5.77,7.13-8.28,12.24-6.58c3.74,1.24,6.05,4.23,6.85,7.9c1.12,5.16,1.47,10.5,2.28,15.73c0.02,0.11,0.06,0.22,0.08,0.33
				c0.28,0.98,1.37,3.76,4.49,2.12c0.19-0.13,0.38-0.26,0.53-0.43c1.43-1.68,2.68-3.66,3.51-5.72c2.96-7.33,3.23-15.1,3.42-22.91
				c0.07-2.94,0.73-6.12,2.02-8.73c3.97-8.01,4.61-16.21,2.2-24.68C-242.42-184.83-252.16-188.56-261.48-182.66z"/>
		</g>
		<path class="st0" d="M-276.78-163.98c-0.37,0-0.75-0.15-1.03-0.44c-1.56-1.6-3.05-2.35-4.43-2.22c-1.9,0.18-3.13,1.99-3.15,2.01
			c-0.46,0.68-1.37,0.86-2.03,0.39c-0.66-0.46-0.84-1.39-0.39-2.07c0.08-0.12,1.99-2.98,5.27-3.31c2.29-0.23,4.58,0.81,6.8,3.09
			c0.57,0.59,0.57,1.54,0,2.12C-276.03-164.13-276.41-163.98-276.78-163.98z"/>
		<path class="st0" d="M-267.61-150.1c-2.08,0-4.16-1.05-6.18-3.12c-0.57-0.59-0.57-1.54,0-2.12c0.57-0.59,1.5-0.59,2.07,0
			c1.56,1.6,3.05,2.36,4.43,2.22c1.9-0.18,3.13-1.99,3.15-2.01c0.46-0.68,1.36-0.86,2.03-0.39c0.66,0.46,0.84,1.39,0.39,2.07
			c-0.08,0.12-1.99,2.98-5.27,3.31C-267.2-150.11-267.41-150.1-267.61-150.1z"/>
		<path class="st0" d="M-248.55-163.98c-0.37,0-0.75-0.15-1.03-0.44c-1.56-1.6-3.05-2.35-4.43-2.22c-1.9,0.18-3.13,1.99-3.15,2.01
			c-0.46,0.68-1.36,0.86-2.03,0.39c-0.66-0.46-0.84-1.39-0.39-2.07c0.08-0.12,1.99-2.98,5.27-3.31c2.29-0.23,4.58,0.81,6.8,3.09
			c0.57,0.59,0.57,1.54,0,2.12C-247.8-164.13-248.17-163.98-248.55-163.98z"/>
		<g>
			<path class="st8" d="M-276.47-117.75c0,1.49,0.08,2.98-0.02,4.46c-0.16,2.4-1.02,4.48-3.36,5.43c-2.33,0.94-4.53,0.54-6.44-1.17
				c-4.83-4.35-6.84-10.22-7.75-16.42c-0.78-5.25-0.72-10.62-1.25-15.92c-0.24-2.37-0.58-4.92-1.63-6.98
				c-4.4-8.59-5.11-17.48-2.76-26.72c2.41-9.46,12.26-18.5,24.73-12.14c4.83,2.47,9.38,2.46,14.18-0.01
				c12.22-6.29,22.45,2.45,24.95,12.92c2.2,9.22,1.18,17.99-3.25,26.42c-0.96,1.82-1.3,4.15-1.34,6.26
				c-0.19,9.04-0.38,18.07-4.5,26.36c-1.07,2.14-2.61,4.09-4.2,5.88c-1.82,2.06-4.26,2.56-6.8,1.51c-2.55-1.06-3.38-3.33-3.34-5.96
				c0.1-5.54-0.1-11.06-2.27-16.23c-0.68-1.62-1.8-3.26-3.14-4.34c-2.83-2.26-7.23-1.11-8.74,2.73c-1.72,4.38-2.55,9.14-3.77,13.73
				C-276.93-117.88-276.7-117.82-276.47-117.75z M-261.48-182.76c1.78,0.16,2.86,0.26,3.94,0.35c1.32,0.11,2.89,0.29,2.59,2.03
				c-0.11,0.65-1.7,1.21-2.7,1.48c-0.77,0.2-1.72,0.01-2.52-0.23c-5.54-1.66-11.29-2.85-16.54-5.21c-7.89-3.54-16.16-0.2-19.24,8.94
				c-2.85,8.45-2.31,16.9,1.88,24.88c1.59,3.02,2.3,6.06,2.2,9.52c-0.19,7.01,0.24,14.04,2.65,20.68c1.02,2.81,2.71,5.42,4.45,7.85
				c0.63,0.89,2.42,1.52,3.46,1.28c0.7-0.16,1.29-2.03,1.43-3.2c0.25-1.98-0.15-4.06,0.18-6.02c0.65-3.85,1.24-7.79,2.55-11.43
				c2.09-5.77,7.13-8.28,12.24-6.58c3.74,1.24,6.05,4.23,6.85,7.9c1.12,5.16,1.47,10.5,2.28,15.73c0.21,1.32,0.95,2.56,1.45,3.83
				c1.24-0.58,2.83-0.85,3.65-1.81c1.43-1.68,2.68-3.66,3.51-5.72c2.96-7.33,3.23-15.1,3.42-22.91c0.07-2.94,0.73-6.12,2.02-8.73
				c3.97-8.01,4.61-16.21,2.2-24.68C-242.42-184.93-252.16-188.66-261.48-182.76z"/>
			<path class="st8" d="M-275.87-123.15c0,0-0.75,5.4-0.74,7.31s-2.09,3.14-2.27,2.22c-0.18-0.92,1.08-8.74,1.08-8.74l1.93-1.05"/>
			<path class="st8" d="M-255.8-114.81c0,0,0.86,4.54,4.79,2.39l-1.5,2.09l-3.29,0.92V-114.81z"/>
		</g>
		<g>
			<path class="st9" d="M-268.21-121.61c-25.17,0-45.65-15.46-45.65-34.45c0-0.83,0.65-1.5,1.46-1.5s1.46,0.67,1.46,1.5
				c0,17.34,19.17,31.45,42.73,31.45s42.72-14.11,42.72-31.45c0-0.83,0.65-1.5,1.46-1.5c0.81,0,1.46,0.67,1.46,1.5
				C-222.56-137.07-243.04-121.61-268.21-121.61z"/>
			<path class="st9" d="M-315.04-155.15c-1.87,0-3.3-0.58-3.4-0.62c-0.75-0.31-1.11-1.19-0.8-1.96c0.3-0.77,1.16-1.13,1.9-0.83
				c0.07,0.03,2.48,0.97,4.57-0.12c1.42-0.74,2.44-2.3,3.03-4.63c0.2-0.8,1-1.28,1.78-1.07c0.78,0.21,1.25,1.03,1.05,1.83
				c-0.82,3.22-2.36,5.42-4.57,6.56C-312.7-155.35-313.95-155.15-315.04-155.15z"/>
			<path class="st9" d="M-220.9-155.27c-1.02,0-2.15-0.18-3.27-0.7c-2.26-1.06-3.87-3.21-4.79-6.39c-0.23-0.79,0.21-1.63,0.98-1.87
				c0.78-0.24,1.59,0.22,1.82,1.01c0.67,2.31,1.74,3.83,3.19,4.51c2.14,1.02,4.55-0.04,4.57-0.05c0.74-0.33,1.6,0.01,1.93,0.77
				c0.33,0.75,0,1.64-0.73,1.97C-217.31-155.97-218.87-155.27-220.9-155.27z"/>
		</g>
	</g>
	<circle class="st9" cx="-268.21" cy="-225.02" r="23.5"/>
	<path class="st0" d="M-257.69-218.1c0.02,1.07-0.48,1.72-1.37,1.79c-0.98,0.08-1.63-0.54-1.77-1.76c-0.35-3.02-0.92-5.99-2.08-8.8
		c-0.56-1.36-1.27-2.7-2.17-3.85c-1.63-2.11-3.88-2.06-5.63-0.05c-1.94,2.23-2.89,4.95-3.69,7.72c-0.5,1.74-0.84,3.53-1.25,5.3
		c-0.25,1.08-0.9,1.59-1.84,1.44c-0.89-0.15-1.4-0.91-1.21-1.99c0.8-4.65,1.97-9.18,4.6-13.19c0.54-0.83,1.23-1.59,1.96-2.25
		c2.77-2.5,6.79-2.2,9.26,0.79c1.08,1.31,1.93,2.86,2.66,4.4C-258.97-225.93-257.73-220.38-257.69-218.1z"/>
</g>
<g>
	<g>
		<circle class="st0" cx="-267.85" cy="-340.49" r="36"/>
		<g>
			<g>
				<path class="st7" d="M-264.74-355.1c0.82,0.07,1.32,0.12,1.82,0.16c0.61,0.05,1.33,0.13,1.2,0.94c-0.05,0.3-0.79,0.56-1.25,0.68
					c-0.36,0.09-0.79,0-1.16-0.11c-2.56-0.77-5.21-1.32-7.63-2.4c-3.64-1.64-7.46-0.09-8.88,4.12c-1.32,3.9-1.07,7.8,0.87,11.48
					c0.73,1.39,1.06,2.8,1.02,4.39c-0.09,3.24,0.11,6.48,1.22,9.54c0.47,1.29,1.25,2.5,2.05,3.62c0.29,0.41,1.12,0.7,1.6,0.59
					c0.32-0.07,0.59-0.94,0.66-1.48c0.11-0.91-0.07-1.87,0.08-2.78c0.3-1.78,0.57-3.6,1.18-5.27c0.96-2.66,3.29-3.82,5.65-3.04
					c1.73,0.57,2.79,1.95,3.16,3.64c0.52,2.38,0.68,4.84,1.05,7.26c0.01,0.05,0.03,0.1,0.04,0.15c0.13,0.45,0.63,1.73,2.07,0.98
					c0.09-0.06,0.18-0.12,0.24-0.2c0.66-0.77,1.24-1.69,1.62-2.64c1.36-3.38,1.49-6.97,1.58-10.58c0.03-1.36,0.34-2.83,0.93-4.03
					c1.83-3.7,2.13-7.48,1.01-11.39C-255.95-356.1-260.44-357.82-264.74-355.1z"/>
			</g>
			<path class="st0" d="M-271.81-346.48c-0.17,0-0.35-0.07-0.48-0.2c-0.72-0.74-1.41-1.08-2.04-1.03c-0.87,0.08-1.45,0.92-1.45,0.93
				c-0.21,0.31-0.63,0.4-0.94,0.18c-0.31-0.21-0.39-0.64-0.18-0.96c0.04-0.06,0.92-1.38,2.43-1.53c1.06-0.1,2.11,0.37,3.14,1.42
				c0.26,0.27,0.26,0.71,0,0.98C-271.46-346.55-271.63-346.48-271.81-346.48z"/>
			<path class="st0" d="M-267.57-340.07c-0.96,0-1.92-0.48-2.85-1.44c-0.26-0.27-0.26-0.71,0-0.98c0.26-0.27,0.69-0.27,0.95,0
				c0.72,0.74,1.41,1.09,2.04,1.03c0.87-0.08,1.45-0.92,1.45-0.93c0.21-0.31,0.63-0.39,0.94-0.18c0.31,0.21,0.39,0.64,0.18,0.96
				c-0.04,0.06-0.92,1.38-2.43,1.53C-267.38-340.07-267.48-340.07-267.57-340.07z"/>
			<path class="st0" d="M-258.77-346.48c-0.17,0-0.35-0.07-0.48-0.2c-0.72-0.74-1.41-1.08-2.04-1.03c-0.87,0.08-1.45,0.92-1.45,0.93
				c-0.21,0.31-0.63,0.4-0.94,0.18c-0.31-0.21-0.39-0.64-0.18-0.96c0.04-0.06,0.92-1.38,2.43-1.53c1.06-0.1,2.11,0.37,3.14,1.42
				c0.26,0.27,0.26,0.71,0,0.98C-258.43-346.55-258.6-346.48-258.77-346.48z"/>
			<g>
				<path class="st7" d="M-271.66-325.14c0,0.69,0.04,1.38-0.01,2.06c-0.08,1.11-0.47,2.07-1.55,2.51
					c-1.07,0.43-2.09,0.25-2.97-0.54c-2.23-2.01-3.15-4.72-3.58-7.58c-0.36-2.42-0.33-4.9-0.58-7.35c-0.11-1.09-0.27-2.27-0.75-3.22
					c-2.03-3.96-2.36-8.07-1.27-12.33c1.11-4.36,5.66-8.54,11.41-5.6c2.23,1.14,4.33,1.14,6.55,0c5.64-2.9,10.36,1.13,11.51,5.96
					c1.01,4.25,0.55,8.3-1.5,12.19c-0.44,0.84-0.6,1.92-0.62,2.89c-0.09,4.17-0.17,8.34-2.08,12.17c-0.49,0.99-1.21,1.89-1.94,2.71
					c-0.84,0.95-1.97,1.18-3.14,0.7c-1.18-0.49-1.56-1.54-1.54-2.75c0.04-2.56-0.04-5.1-1.05-7.49c-0.31-0.75-0.83-1.51-1.45-2
					c-1.31-1.04-3.34-0.51-4.03,1.26c-0.79,2.02-1.18,4.22-1.74,6.34C-271.87-325.2-271.77-325.17-271.66-325.14z M-264.74-355.14
					c0.82,0.07,1.32,0.12,1.82,0.16c0.61,0.05,1.33,0.13,1.2,0.94c-0.05,0.3-0.79,0.56-1.25,0.68c-0.36,0.09-0.79,0-1.16-0.11
					c-2.56-0.77-5.21-1.32-7.63-2.4c-3.64-1.64-7.46-0.09-8.88,4.12c-1.32,3.9-1.07,7.8,0.87,11.48c0.73,1.39,1.06,2.8,1.02,4.39
					c-0.09,3.24,0.11,6.48,1.22,9.54c0.47,1.29,1.25,2.5,2.05,3.62c0.29,0.41,1.12,0.7,1.6,0.59c0.32-0.07,0.59-0.94,0.66-1.48
					c0.11-0.91-0.07-1.87,0.08-2.78c0.3-1.78,0.57-3.6,1.18-5.27c0.96-2.66,3.29-3.82,5.65-3.04c1.73,0.57,2.79,1.95,3.16,3.64
					c0.52,2.38,0.68,4.84,1.05,7.26c0.1,0.61,0.44,1.18,0.67,1.77c0.57-0.27,1.31-0.39,1.68-0.84c0.66-0.77,1.24-1.69,1.62-2.64
					c1.36-3.38,1.49-6.97,1.58-10.58c0.03-1.36,0.34-2.83,0.93-4.03c1.83-3.7,2.13-7.48,1.01-11.39
					C-255.95-356.15-260.44-357.87-264.74-355.14z"/>
				<path class="st7" d="M-271.38-327.63c0,0-0.35,2.49-0.34,3.37c0.01,0.88-0.97,1.45-1.05,1.02c-0.08-0.43,0.5-4.03,0.5-4.03
					l0.89-0.48"/>
				<path class="st7" d="M-262.12-323.78c0,0,0.39,2.1,2.21,1.1l-0.69,0.97l-1.52,0.43V-323.78z"/>
			</g>
			<g>
				<path class="st9" d="M-267.85-326.92c-11.62,0-21.07-7.13-21.07-15.9c0-0.38,0.3-0.69,0.68-0.69s0.68,0.31,0.68,0.69
					c0,8,8.85,14.52,19.72,14.52c10.87,0,19.72-6.51,19.72-14.52c0-0.38,0.3-0.69,0.68-0.69s0.68,0.31,0.68,0.69
					C-246.78-334.06-256.23-326.92-267.85-326.92z"/>
				<path class="st9" d="M-289.46-342.4c-0.86,0-1.52-0.27-1.57-0.29c-0.35-0.14-0.51-0.55-0.37-0.9c0.14-0.35,0.53-0.52,0.88-0.38
					c0.03,0.01,1.15,0.45,2.11-0.05c0.66-0.34,1.13-1.06,1.4-2.14c0.09-0.37,0.46-0.59,0.82-0.5c0.36,0.1,0.58,0.47,0.48,0.84
					c-0.38,1.48-1.09,2.5-2.11,3.03C-288.38-342.49-288.96-342.4-289.46-342.4z"/>
				<path class="st9" d="M-246.01-342.45c-0.47,0-0.99-0.08-1.51-0.33c-1.04-0.49-1.79-1.48-2.21-2.95
					c-0.11-0.37,0.1-0.75,0.45-0.86c0.36-0.11,0.73,0.1,0.84,0.47c0.31,1.07,0.8,1.77,1.47,2.08c0.99,0.47,2.1-0.02,2.11-0.02
					c0.34-0.15,0.74,0,0.89,0.35c0.15,0.35,0,0.76-0.34,0.91C-244.36-342.78-245.08-342.45-246.01-342.45z"/>
			</g>
		</g>
	</g>
	<circle class="st9" cx="-267.85" cy="-381.92" r="15.16"/>
	<path class="st0" d="M-261.06-377.46c0.01,0.69-0.31,1.11-0.89,1.16c-0.63,0.05-1.05-0.35-1.14-1.13
		c-0.22-1.95-0.59-3.86-1.34-5.68c-0.36-0.87-0.82-1.74-1.4-2.48c-1.05-1.36-2.5-1.33-3.63-0.03c-1.25,1.44-1.87,3.19-2.38,4.98
		c-0.32,1.12-0.54,2.28-0.8,3.42c-0.16,0.7-0.58,1.03-1.18,0.93c-0.57-0.09-0.9-0.58-0.78-1.28c0.52-3,1.27-5.92,2.97-8.5
		c0.35-0.53,0.79-1.02,1.27-1.45c1.79-1.61,4.38-1.42,5.97,0.51c0.7,0.85,1.25,1.84,1.72,2.84
		C-261.89-382.51-261.09-378.93-261.06-377.46z"/>
</g>
<path class="st0" d="M8.55,17.94c-1.52,0.17-2.96,0.4-4.42,0.46c-1.28,0.06-2.57-0.07-3.86-0.13c-0.1-0.01-0.29-0.18-0.27-0.26
	c0.17-1.21,0.37-2.41,0.57-3.65c2.27,0.26,4.49,0.17,6.72-0.31c-0.09-0.61-0.2-1.19-0.26-1.78c-0.33-2.9-0.17-5.75,1-8.48
	c0.84-1.96,2.25-3.23,4.39-3.62c3.5-0.64,7.04,2.07,7.35,5.6c0.21,2.33-0.66,4.29-1.97,6.13c-1.36,1.91-3.15,3.33-5.22,4.43
	c-0.11,0.06-0.23,0.12-0.39,0.21c0.22,0.43,0.4,0.87,0.64,1.27c2.66,4.5,6.46,7.55,11.57,8.79c3.65,0.88,7.23,0.41,10.63-1.15
	c3.95-1.8,6.81-4.78,8.99-8.46c0.03-0.04,0.04-0.09,0.06-0.13c-0.67-0.4-1.37-0.75-1.99-1.21c-2.57-1.93-4.26-4.46-4.84-7.64
	c-0.65-3.52,1.44-6.66,4.89-7.34c2.27-0.45,4.15,0.36,5.64,2.07c1.42,1.62,2.06,3.58,2.3,5.68c0.22,1.87,0.03,3.7-0.5,5.5
	c-0.02,0.06-0.03,0.12-0.06,0.27c1.11,0.05,2.18,0.12,3.25,0.15c1.06,0.03,2.13,0.01,3.22,0.01c0,1.32,0,2.59,0,3.88
	c-0.11,0.01-0.21,0.04-0.31,0.03c-2.2-0.06-4.4-0.05-6.58-0.24c-0.9-0.08-1.26,0.16-1.69,0.91c-2.37,4.12-5.55,7.46-9.82,9.65
	c-3.43,1.76-7.08,2.47-10.95,2.3c-7.64-0.34-15.06-6.05-17.93-12.58C8.66,18.16,8.59,18.02,8.55,17.94z M45.68,13.22
	c0.04-0.09,0.07-0.15,0.09-0.2c0.51-1.54,0.64-3.11,0.37-4.71c-0.21-1.24-0.64-2.38-1.6-3.27c-0.46-0.43-0.99-0.63-1.63-0.5
	c-1.32,0.26-2.05,1.44-1.78,2.88c0.29,1.6,1.11,2.93,2.18,4.13C43.96,12.26,44.75,12.82,45.68,13.22z M10.94,12.71
	c0.15-0.05,0.2-0.06,0.25-0.09c2.07-1.19,3.66-2.81,4.52-5.07c0.57-1.49-0.18-2.96-1.68-3.41c-1.03-0.31-1.81,0.02-2.3,0.98
	c-0.14,0.28-0.26,0.57-0.37,0.87c-0.42,1.17-0.6,2.4-0.6,3.63C10.77,10.63,10.88,11.65,10.94,12.71z"/>
</svg>
