<?xml version="1.0" encoding="utf-8"?>
<!-- Generator: Adobe Illustrator 25.2.1, SVG Export Plug-In . SVG Version: 6.00 Build 0)  -->
<svg version="1.1" id="Capa_1" xmlns="http://www.w3.org/2000/svg" xmlns:xlink="http://www.w3.org/1999/xlink" x="0px" y="0px"
	 viewBox="0 0 105.9 82.61" style="enable-background:new 0 0 105.9 82.61;" xml:space="preserve">
<style type="text/css">
	.st0{fill:#111F35;}
	.st1{fill:#FFFFFF;}
	.st2{fill:none;stroke:#111F35;stroke-width:3;stroke-linecap:round;stroke-miterlimit:10;}
	.st3{fill:#669BBA;}
	.st4{fill:none;}
	.st5{fill:#96C9DA;}
	.st6{fill:#F5F4F4;}
</style>
<g>
	<g>
		<g>
			<path class="st0" d="M30.61,57.69c-0.29,0.66-0.92,1.06-1.58,1.06c-0.23,0-0.47-0.05-0.69-0.15c-1.02-0.46-2.01-0.95-2.96-1.46
				c-0.1-1.37-0.15-2.75-0.17-4.13c1.42,0.84,2.93,1.62,4.51,2.34C30.59,55.75,30.99,56.79,30.61,57.69z"/>
		</g>
	</g>
	<path class="st1" d="M41.73,3.64l10.82,3.28c0,0,7.14-4.98,9.48-5.04c2.34-0.06,11.78,0,12.49,2.52c0.71,2.52,5.9,9.44,5.9,14.11
		s-0.11,16.68-4.77,25.35c0,0-1.12,24.92-3.72,28.56c-2.59,3.64-4.35,8.98-8.07,8.98c-3.72,0-4.25-22.28-9.19-26.44
		s-9.98-1.21-9.98-1.21s-5.52,10.61-5.89,17.07c-0.37,6.46-0.36,14.03-6.97,7.96s-6.89-15.81-8.75-33.28s-8.87-11.89-3.6-34.2
		c0,0,10.33-13,19.32-9.4S41.73,3.64,41.73,3.64z"/>
	<path class="st0" d="M30.63,27.36c-0.33,0-0.66-0.1-0.96-0.3c-0.79-0.55-1-1.65-0.47-2.46c0.08-0.13,2.07-3.11,5.47-3.45
		c2.39-0.24,4.75,0.83,7.03,3.18c0.67,0.69,0.67,1.81,0,2.5c-0.67,0.69-1.76,0.69-2.44,0c-1.52-1.57-2.97-2.3-4.26-2.16
		c-1.75,0.18-2.94,1.88-2.95,1.9C31.72,27.09,31.18,27.36,30.63,27.36z"/>
	<path class="st2" d="M54.39,36.89c0,0-3.96,6.07-9.86,0"/>
	<path class="st0" d="M58.99,27.36c-0.33,0-0.66-0.1-0.96-0.3c-0.79-0.55-1-1.65-0.47-2.46c0.08-0.13,2.07-3.11,5.47-3.45
		c2.39-0.24,4.75,0.83,7.03,3.18c0.67,0.69,0.67,1.81,0,2.5c-0.67,0.69-1.76,0.69-2.44,0c-1.52-1.57-2.97-2.3-4.26-2.16
		c-1.75,0.18-2.94,1.88-2.95,1.9C60.09,27.09,59.54,27.36,58.99,27.36z"/>
	<path class="st0" d="M89.72,48.33c-0.57-0.78-1.65-0.94-2.41-0.36c-4.79,3.66-8.85,3.91-10.48,3.83c0.04-1.24,0.06-2.49,0.09-3.73
		c0.05-2.12,0.39-4.47,1.34-6.3c4.45-8.49,5.48-17.33,3.27-26.62C79.03,4.6,68.75-4.19,56.47,2.14c-4.82,2.49-9.39,2.49-14.24,0.01
		C29.7-4.27,19.81,4.85,17.39,14.37c-2.37,9.31-1.66,18.27,2.76,26.92c1.06,2.08,1.4,4.65,1.65,7.04c0.09,0.86,0.16,1.73,0.21,2.59
		c-8.18-5.89-12.86-13.95-12.86-22.6c0-0.03,0-0.05-0.01-0.08c1.95-1.27,3.32-3.43,4.08-6.43c0.24-0.95-0.31-1.91-1.24-2.16
		c-0.91-0.24-1.86,0.32-2.1,1.27c-0.58,2.29-1.57,3.82-2.94,4.54c-2.02,1.05-4.38,0.13-4.43,0.11c-0.88-0.36-1.88,0.07-2.24,0.97
		c-0.36,0.91,0.06,1.94,0.94,2.31c0.1,0.04,1.59,0.65,3.54,0.65c0.31,0,0.64-0.02,0.97-0.05c0.42,10.19,6.43,19.49,16.55,25.88
		c0.17,3.03,0.34,6.05,0.78,9.04c0.92,6.23,2.94,12.15,7.78,16.53c1.91,1.73,4.14,2.13,6.47,1.18c2.35-0.96,3.21-3.05,3.38-5.47
		c0.11-1.49,0.02-2.99,0.02-4.49c-0.01,0-0.02-0.01-0.03-0.01c0.19-2.34,0.62-5.42,0.62-5.42v-0.05c0.69-2.91,1.43-5.8,2.49-8.55
		c1.52-3.86,5.94-5.02,8.78-2.74c1.35,1.08,2.47,2.73,3.16,4.37c2.18,5.2,2.37,10.76,2.28,16.35c-0.05,2.65,0.78,4.93,3.35,6
		c2.55,1.06,5,0.56,6.83-1.52c1.6-1.8,3.15-3.77,4.21-5.92c3.05-6.13,3.95-12.67,4.3-19.31c0.18,0.02,0.37,0.02,0.58,0.02
		c2.45,0,7.01-0.64,12.1-4.53C90.13,50.22,90.29,49.12,89.72,48.33z M75.59,39.48c-1.3,2.63-1.96,5.83-2.03,8.8
		c-0.2,7.88-0.47,15.69-3.44,23.08c-0.83,2.08-2.09,4.07-3.53,5.76c-0.15,0.19-0.33,0.34-0.53,0.47c-3.07,1.56-4.2-1.08-4.5-2.12
		c-0.04-0.13-0.07-0.26-0.09-0.39c-0.81-5.27-1.17-10.65-2.29-15.85c-0.8-3.69-3.12-6.7-6.88-7.95c-5.14-1.71-10.2,0.81-12.3,6.63
		c-1.31,3.67-1.9,7.64-2.56,11.52c-0.33,1.96,0.07,4.06-0.17,6.05c-0.15,1.18-0.75,3.06-1.44,3.23c-1.05,0.25-2.84-0.4-3.48-1.28
		c-1.74-2.45-3.44-5.09-4.47-7.91c-1.45-4.02-2.18-8.17-2.5-12.38c-0.1-1.37-0.15-2.75-0.17-4.13c-0.03-1.44-0.02-2.88,0.02-4.32
		c0.09-3.49-0.62-6.55-2.22-9.59c-4.21-8.03-4.76-16.55-1.89-25.06c3.1-9.2,11.41-12.58,19.33-9.01c5.27,2.38,11.05,3.58,16.62,5.25
		c0.8,0.24,1.75,0.44,2.53,0.23c1.01-0.26,2.6-0.83,2.71-1.48c0.3-1.75-1.27-1.94-2.6-2.05c-1.08-0.09-2.17-0.19-3.95-0.35
		c9.35-5.94,19.13-2.2,22.03,7.98C80.22,23.15,79.58,31.41,75.59,39.48z"/>
	<g>
		<path class="st3" d="M65.74,53.24c-0.85,1.33-1.99,2.13-3.46,2.43c-9.02,1.86-12.34,1.46-12.36,1.46l-0.12-0.02h-0.13
			c-2.62,0.07-9.98-0.08-12.68-1.55c-3.04-1.66-4.6-2.53-5.09-17.45l17.78-2.71l17.34,2.75C67.64,41.79,68.24,49.34,65.74,53.24z"/>
	</g>
	<g>
		<path class="st0" d="M74.7,47.97l-4.61,1.72c0.85-4.69,0.2-9.88-0.17-12.1l11-6.33l-0.73-1.31l-0.72-1.32l-11.47,6.61l-18.31-2.9
			l-19.01,2.9l-11.25-6.61l-0.73,1.32l-0.73,1.31l10.96,6.44c0.18,5.44,0.5,9.27,1.01,12.04l-4.91-1.78l-0.49,1.43l-0.5,1.42
			l6.85,2.49c1.09,2.76,2.64,3.78,4.75,4.95c3.7,2.03,12.58,1.92,13.99,1.89c0.21,0.02,0.61,0.05,1.25,0.05
			c1.82,0,5.54-0.23,11.95-1.55c2.25-0.46,4.05-1.72,5.34-3.74c0.32-0.5,0.6-1.04,0.83-1.6l6.67-2.5l-0.51-1.41L74.7,47.97z
			 M65.74,53.24c-0.85,1.33-1.99,2.13-3.46,2.43c-9.02,1.86-12.34,1.46-12.36,1.46l-0.12-0.02h-0.13
			c-2.62,0.07-9.98-0.08-12.68-1.55c-3.04-1.66-4.6-2.53-5.09-17.45l17.78-2.71l17.34,2.75C67.64,41.79,68.24,49.34,65.74,53.24z"/>
	</g>
	<g>
		<line class="st4" x1="38.95" y1="42.13" x2="60.42" y2="42.13"/>
		<path class="st0" d="M60.42,43.65H38.95c-0.81,0-1.47-0.68-1.47-1.51c0-0.83,0.66-1.51,1.47-1.51h21.47
			c0.81,0,1.47,0.68,1.47,1.51C61.89,42.97,61.23,43.65,60.42,43.65z"/>
	</g>
	<g>
		<line class="st4" x1="38.95" y1="49.39" x2="60.42" y2="49.39"/>
		<path class="st0" d="M60.42,50.9H38.95c-0.81,0-1.47-0.68-1.47-1.51s0.66-1.51,1.47-1.51h21.47c0.81,0,1.47,0.68,1.47,1.51
			S61.23,50.9,60.42,50.9z"/>
	</g>
	<g>
		<path class="st5" d="M88.33,28.54l-5.16,15.43c-0.51,1.53,0.3,3.2,1.8,3.7l10,3.3c1.43,0.47,2.96-0.29,3.49-1.74l5.65-15.47
			c0.57-1.57-0.26-3.3-1.82-3.79L91.8,26.71C90.36,26.26,88.82,27.07,88.33,28.54z"/>
		<path class="st0" d="M95.83,52.61c-0.43,0-0.88-0.07-1.31-0.21l-10-3.3c-1.11-0.37-2-1.15-2.52-2.22
			c-0.52-1.07-0.6-2.28-0.22-3.41l5.16-15.43c0.75-2.25,3.08-3.47,5.29-2.78l10.49,3.26c1.13,0.35,2.08,1.18,2.6,2.27
			c0.52,1.09,0.58,2.36,0.17,3.5l-5.65,15.47C99.2,51.51,97.57,52.61,95.83,52.61z M90.99,28.1c-0.56,0-1.07,0.36-1.27,0.93
			l-5.16,15.43c-0.12,0.35-0.09,0.73,0.07,1.07c0.16,0.33,0.44,0.58,0.79,0.7l10,3.3c0.68,0.23,1.42-0.14,1.67-0.83l5.65-15.47
			c0.13-0.36,0.11-0.75-0.05-1.1c-0.17-0.35-0.46-0.6-0.82-0.71l-10.49-3.26C91.25,28.12,91.12,28.1,90.99,28.1z M88.33,28.54
			L88.33,28.54L88.33,28.54z"/>
	</g>
	<path class="st0" d="M97.17,23.63l3.05,0.92c1.4,0.42,2.19,1.93,1.77,3.36l-0.87,2.94c-0.42,1.42-1.89,2.22-3.27,1.78l-3.13-1
		c-1.41-0.45-2.17-2.01-1.69-3.44l0.95-2.85C94.42,23.98,95.83,23.23,97.17,23.63z"/>
	<path class="st6" d="M97.33,25.88l1.53,0.46c0.7,0.21,1.09,0.96,0.88,1.68l-0.44,1.47c-0.21,0.71-0.95,1.11-1.64,0.89l-1.57-0.5
		c-0.7-0.22-1.09-1-0.85-1.72l0.48-1.43C95.95,26.06,96.66,25.68,97.33,25.88z"/>
</g>
</svg>
