<svg width="221" height="65" viewBox="0 0 221 65" fill="none" xmlns="http://www.w3.org/2000/svg">
<path d="M207.25 63.4131H13.72C7.11997 63.4131 1.71997 58.0131 1.71997 51.4131V13.4431C1.71997 6.84312 7.11997 1.44312 13.72 1.44312H207.25C213.85 1.44312 219.25 6.84312 219.25 13.4431V51.4131C219.25 58.0131 213.85 63.4131 207.25 63.4131Z" stroke="#0E1F35" stroke-width="2" stroke-miterlimit="10"/>
<path d="M32.57 35.043C33.19 35.043 33.67 35.603 33.56 36.203C33.28 37.783 32.39 40.213 29.46 40.213C25.46 40.213 25 36.013 25 31.503C25 26.063 26.34 22.863 29.61 22.863C32.54 22.863 33.35 25.213 33.59 26.873C33.67 27.493 33.21 28.033 32.6 28.033H32.1C31.6 28.033 31.19 27.663 31.11 27.173C30.99 26.383 30.64 25.423 29.57 25.423C27.99 25.423 27.6 27.733 27.6 31.573C27.6 34.743 27.86 37.713 29.5 37.713C30.56 37.713 30.94 36.693 31.08 35.873C31.17 35.393 31.58 35.043 32.06 35.043H32.57Z" fill="#0E1F35"/>
<path d="M37.7 35.7033L37.14 39.0933C37.06 39.5733 36.64 39.9333 36.15 39.9333H35.7C35.07 39.9333 34.6 39.3633 34.72 38.7433L37.59 23.9533C37.68 23.4833 38.09 23.1433 38.57 23.1433H40.19C40.67 23.1433 41.08 23.4833 41.17 23.9533L44.07 38.7433C44.19 39.3633 43.72 39.9333 43.09 39.9333H42.51C42.02 39.9333 41.6 39.5833 41.52 39.0933L40.96 35.7033H37.7ZM40.51 33.0933C39.98 29.8833 39.57 27.5333 39.34 25.9233H39.28C39.11 27.4733 38.66 29.9933 38.14 33.0933H40.51Z" fill="#0E1F35"/>
<path d="M46.8401 35.2233C47.3101 35.2233 47.7201 35.5433 47.8101 36.0033C48.0301 37.0433 48.5401 37.8433 49.5701 37.8433C50.8101 37.8433 51.2701 36.9133 51.2701 35.6633C51.2701 34.2833 50.7001 33.4833 48.9201 32.4633C46.5201 31.1033 45.5701 29.9033 45.5701 27.4033C45.5701 24.7133 47.0201 22.8733 49.5601 22.8733C52.1801 22.8733 53.1701 24.6333 53.4501 26.4733C53.5401 27.0733 53.0601 27.6133 52.4601 27.6133H51.9501C51.4701 27.6133 51.0601 27.2733 50.9701 26.8033C50.8101 26.0133 50.4501 25.2433 49.5101 25.2433C48.5101 25.2433 48.0701 26.0133 48.0701 27.1533C48.0701 28.3633 48.5201 28.9233 50.1701 29.8433C52.6901 31.2333 53.8301 32.5933 53.8301 35.4033C53.8301 38.0433 52.4601 40.2233 49.4901 40.2233C46.7501 40.2233 45.6201 38.4533 45.2901 36.3833C45.1901 35.7833 45.6701 35.2333 46.2801 35.2333H46.8401V35.2233Z" fill="#0E1F35"/>
<path d="M57.9999 35.7033L57.4699 38.9033C57.3699 39.4933 56.8599 39.9233 56.2599 39.9233C55.4899 39.9233 54.9099 39.2233 55.0599 38.4633L57.8399 24.1133C57.9499 23.5333 58.4599 23.1233 59.0399 23.1233H60.2899C60.8799 23.1233 61.3799 23.5333 61.4899 24.1133L64.2799 38.3433C64.4399 39.1633 63.8199 39.9233 62.9799 39.9233C62.3799 39.9233 61.8699 39.4933 61.7699 38.9033L61.2399 35.7033H57.9999ZM60.8099 33.0933C60.2799 29.8833 59.8699 27.5333 59.6399 25.9233H59.5799C59.4099 27.4733 58.9599 29.9933 58.4399 33.0933H60.8099Z" fill="#0E1F35"/>
<path d="M69.2601 36.0535C69.3001 38.2835 70.3201 39.7535 71.9801 39.7535C73.7301 39.7535 74.6401 38.2635 74.6401 35.9035C74.6401 33.6435 73.8901 32.4335 72.0201 31.2335C70.1901 30.0635 69.3401 29.1035 69.3401 26.6635C69.3401 24.6035 70.1501 22.8435 72.0401 22.8435C73.9101 22.8435 74.7201 24.4335 74.7201 26.6935H74.3701C74.3501 24.3835 73.5001 23.2435 72.0201 23.2435C70.2901 23.2435 69.7101 24.8835 69.7101 26.6435C69.7101 28.8035 70.3101 29.6435 72.1401 30.8135C74.2401 32.1535 75.0101 33.4235 75.0101 35.9035C75.0101 38.0835 74.2601 40.1435 71.9501 40.1435C69.6401 40.1435 68.9101 37.9635 68.8701 36.0535H69.2601Z" fill="#0E1F35" stroke="#0E1F35" stroke-width="0.5" stroke-miterlimit="10"/>
<path d="M77.7001 23.0735V39.9235H77.3301V23.0735H77.7001Z" fill="#0E1F35" stroke="#0E1F35" stroke-width="0.5" stroke-miterlimit="10"/>
<path d="M80.15 36.0535C80.19 38.2835 81.21 39.7535 82.87 39.7535C84.62 39.7535 85.53 38.2635 85.53 35.9035C85.53 33.6435 84.78 32.4335 82.91 31.2335C81.08 30.0635 80.23 29.1035 80.23 26.6635C80.23 24.6035 81.04 22.8435 82.93 22.8435C84.8 22.8435 85.61 24.4335 85.61 26.6935H85.26C85.24 24.3835 84.39 23.2435 82.91 23.2435C81.18 23.2435 80.6 24.8835 80.6 26.6435C80.6 28.8035 81.2 29.6435 83.03 30.8135C85.13 32.1535 85.9 33.4235 85.9 35.9035C85.9 38.0835 85.15 40.1435 82.84 40.1435C80.53 40.1435 79.8 37.9635 79.76 36.0535H80.15Z" fill="#0E1F35" stroke="#0E1F35" stroke-width="0.5" stroke-miterlimit="10"/>
<path d="M89.8002 23.4735H86.6802V23.0735H93.2902V23.4735H90.1702V39.9335H89.8002V23.4735Z" fill="#0E1F35" stroke="#0E1F35" stroke-width="0.5" stroke-miterlimit="10"/>
<path d="M99.74 31.1435H95.08V39.5335H100.22L100.14 39.9335H94.71V23.0735H100.03V23.4735H95.08V30.7435H99.74V31.1435Z" fill="#0E1F35" stroke="#0E1F35" stroke-width="0.5" stroke-miterlimit="10"/>
<path d="M109.89 31.5635C109.89 28.1135 109.89 25.0335 109.95 23.4435H109.93C109.7 24.7135 107.62 34.1935 106.33 39.9235H105.87C104.71 34.1135 102.92 26.2235 102.42 23.4935H102.4C102.46 25.1835 102.46 29.3735 102.46 32.2535V39.9235H102.11V23.0735H102.67C104.21 30.2735 105.98 38.3635 106.1 39.3835H106.12C106.27 38.4435 108.18 29.8735 109.68 23.0735H110.26V39.9235H109.89V31.5635Z" fill="#0E1F35" stroke="#0E1F35" stroke-width="0.5" stroke-miterlimit="10"/>
<path d="M113.81 33.1833L112.46 39.9333H112.09L115.5 23.0833H115.96L119.5 39.9333H119.11L117.74 33.1833H113.81ZM117.63 32.7833C116.4 26.8733 115.88 24.5433 115.72 23.5233H115.7C115.58 24.5133 114.76 28.4333 113.89 32.7833H117.63Z" fill="#0E1F35" stroke="#0E1F35" stroke-width="0.5" stroke-miterlimit="10"/>
<path d="M125.56 33.1833L124.21 39.9333H123.84L127.25 23.0833H127.71L131.25 39.9333H130.86L129.49 33.1833H125.56ZM129.38 32.7833C128.15 26.8733 127.63 24.5433 127.47 23.5233H127.45C127.33 24.5133 126.51 28.4333 125.64 32.7833H129.38Z" fill="#0E1F35" stroke="#0E1F35" stroke-width="0.5" stroke-miterlimit="10"/>
<path d="M133 36.0535C133.04 38.2835 134.06 39.7535 135.72 39.7535C137.47 39.7535 138.38 38.2635 138.38 35.9035C138.38 33.6435 137.63 32.4335 135.76 31.2335C133.93 30.0635 133.08 29.1035 133.08 26.6635C133.08 24.6035 133.89 22.8435 135.78 22.8435C137.65 22.8435 138.46 24.4335 138.46 26.6935H138.11C138.09 24.3835 137.24 23.2435 135.76 23.2435C134.03 23.2435 133.45 24.8835 133.45 26.6435C133.45 28.8035 134.05 29.6435 135.88 30.8135C137.98 32.1535 138.75 33.4235 138.75 35.9035C138.75 38.0835 138 40.1435 135.69 40.1435C133.38 40.1435 132.65 37.9635 132.61 36.0535H133Z" fill="#0E1F35" stroke="#0E1F35" stroke-width="0.5" stroke-miterlimit="10"/>
<path d="M141.45 23.0735V39.9235H141.08V23.0735H141.45Z" fill="#0E1F35" stroke="#0E1F35" stroke-width="0.5" stroke-miterlimit="10"/>
<path d="M143.9 36.0535C143.94 38.2835 144.96 39.7535 146.62 39.7535C148.37 39.7535 149.28 38.2635 149.28 35.9035C149.28 33.6435 148.53 32.4335 146.66 31.2335C144.83 30.0635 143.98 29.1035 143.98 26.6635C143.98 24.6035 144.79 22.8435 146.68 22.8435C148.55 22.8435 149.36 24.4335 149.36 26.6935H149.01C148.99 24.3835 148.14 23.2435 146.66 23.2435C144.93 23.2435 144.35 24.8835 144.35 26.6435C144.35 28.8035 144.95 29.6435 146.78 30.8135C148.88 32.1535 149.65 33.4235 149.65 35.9035C149.65 38.0835 148.9 40.1435 146.59 40.1435C144.28 40.1435 143.55 37.9635 143.51 36.0535H143.9Z" fill="#0E1F35" stroke="#0E1F35" stroke-width="0.5" stroke-miterlimit="10"/>
<path d="M153.55 23.4735H150.43V23.0735H157.04V23.4735H153.92V39.9335H153.55V23.4735Z" fill="#0E1F35" stroke="#0E1F35" stroke-width="0.5" stroke-miterlimit="10"/>
<path d="M163.49 31.1435H158.83V39.5335H163.97L163.89 39.9335H158.46V23.0735H163.78V23.4735H158.83V30.7435H163.49V31.1435Z" fill="#0E1F35" stroke="#0E1F35" stroke-width="0.5" stroke-miterlimit="10"/>
<path d="M165.76 39.9335V23.0735H166.3C171.27 37.2735 171.69 38.3935 172 39.3335H172.02C171.96 37.4935 171.98 34.4735 171.98 31.7335V23.0735H172.35V39.9235H171.83C166.76 25.5235 166.4 24.4335 166.09 23.5435H166.07C166.13 25.6535 166.13 28.2835 166.13 31.3835V39.9235H165.76V39.9335Z" fill="#0E1F35" stroke="#0E1F35" stroke-width="0.5" stroke-miterlimit="10"/>
<path d="M181.36 35.8833C181.24 37.1033 180.9 40.1533 178.28 40.1533C175.45 40.1533 174.83 36.5033 174.83 31.5633C174.83 25.5533 175.95 22.8533 178.37 22.8533C180.79 22.8533 181.26 25.4133 181.32 27.0033H180.97C180.87 25.4133 180.43 23.2833 178.37 23.2833C176.33 23.2833 175.21 25.4733 175.21 31.5533C175.21 36.4933 175.88 39.7433 178.31 39.7433C180.6 39.7433 180.89 36.9933 180.99 35.8933H181.36V35.8833Z" fill="#0E1F35" stroke="#0E1F35" stroke-width="0.5" stroke-miterlimit="10"/>
<path d="M183.79 23.0735V39.9235H183.42V23.0735H183.79Z" fill="#0E1F35" stroke="#0E1F35" stroke-width="0.5" stroke-miterlimit="10"/>
<path d="M187.54 33.1833L186.19 39.9333H185.82L189.23 23.0833H189.69L193.23 39.9333H192.84L191.47 33.1833H187.54ZM191.36 32.7833C190.13 26.8733 189.61 24.5433 189.45 23.5233H189.43C189.31 24.5133 188.49 28.4333 187.62 32.7833H191.36Z" fill="#0E1F35" stroke="#0E1F35" stroke-width="0.5" stroke-miterlimit="10"/>
<path d="M195.04 23.0735H195.41V39.5335H200.4L200.3 39.9335H195.04V23.0735Z" fill="#0E1F35" stroke="#0E1F35" stroke-width="0.5" stroke-miterlimit="10"/>
</svg>
