<svg width="103" height="102" viewBox="0 0 103 102" fill="none" xmlns="http://www.w3.org/2000/svg">
<path d="M51.5 100.014C78.8381 100.014 101 78.0756 101 51.0137C101 23.9517 78.8381 2.01367 51.5 2.01367C24.1619 2.01367 2 23.9517 2 51.0137C2 78.0756 24.1619 100.014 51.5 100.014Z" stroke="#689BBE" stroke-width="3" stroke-miterlimit="10"/>
<path d="M79.8904 33.7776C79.9965 34.3086 80.129 34.8515 80.2332 35.344C80.3451 35.8738 80.4322 36.3811 80.4539 36.8782L80.4587 37.0911C80.4959 44.572 80.5129 52.051 80.4958 59.5305L80.4666 67.01C80.444 71.083 77.4208 74.2528 73.3972 74.4612L73.0046 74.4729C62.5049 74.512 52.0051 74.5247 41.5056 74.5032L31.0066 74.47C26.8929 74.4524 23.7657 71.4362 23.5505 67.4084L23.5388 67.0149C23.4934 59.5042 23.4929 51.9901 23.5164 44.4758L23.5466 36.9622C23.5491 36.4215 23.6437 35.8689 23.782 35.2317C23.8637 34.8555 23.961 34.4402 24.0603 33.9924C25.1549 35.0967 26.1962 36.1488 27.2097 37.1711L30.7751 40.7522L45.281 55.219C47.3406 57.2704 49.655 58.3343 52.0056 58.3362C54.2097 58.3379 56.3766 57.4063 58.325 55.6067L58.7117 55.2346C62.0838 51.8679 65.4593 48.5036 68.8337 45.1379L78.9509 35.0334V35.0325C79.2065 34.7762 79.4158 34.4892 79.6003 34.2161C79.7063 34.0593 79.799 33.9162 79.8904 33.7776Z" fill="#689BBE" stroke="#689BBE"/>
<path d="M62.4331 29.5232L72.8335 29.5496C73.4037 29.5521 73.9863 29.6493 74.6372 29.7878C75.0386 29.8733 75.4782 29.9758 75.9438 30.0769C75.855 30.1833 75.7787 30.2737 75.7056 30.3562L75.519 30.5544V30.5554L54.9712 51.0476C53.7755 52.2393 52.8443 52.7237 51.9917 52.7166C51.1894 52.7098 50.3124 52.2672 49.2085 51.2166L48.9849 50.9978C45.6093 47.6289 42.2324 44.262 38.854 40.8972L28.7144 30.8093C28.5259 30.6216 28.3204 30.4632 28.1274 30.323C28.0345 30.2555 27.9504 30.1935 27.8687 30.1355C28.3955 30.0257 28.9323 29.8933 29.4214 29.7878C30.0494 29.6525 30.6477 29.5521 31.2329 29.5496L31.2319 29.5486C41.6321 29.5115 52.0328 29.505 62.4331 29.5232Z" fill="#689BBE" stroke="#689BBE"/>
</svg>
