<svg width="92" height="109" viewBox="0 0 92 109" fill="none" xmlns="http://www.w3.org/2000/svg">
<path d="M47.8415 0.541804C45.1615 0.424656 43.4915 0.541804 43.4915 0.541804C31.8515 0.942059 0.701454 5.18867 0.0114535 38.7808C-0.798546 78.201 41.6115 105.916 45.5215 108.376C45.5615 108.376 45.6015 108.415 45.6415 108.454H45.6815C45.7215 108.415 45.7615 108.376 45.8015 108.376C49.7115 105.916 92.1215 78.201 91.3115 38.7808C90.6215 5.18867 59.4715 0.942059 47.8415 0.541804ZM45.5515 61.2829C34.0015 61.2829 24.6315 52.1357 24.6315 40.8602C24.6315 29.5847 34.0015 20.4374 45.5515 20.4374C57.1015 20.4374 66.4715 29.5847 66.4715 40.8602C66.4715 52.1357 57.1115 61.2829 45.5515 61.2829Z" fill="#689BBE"/>
<path d="M57.8513 65.5005H33.6113C27.0113 65.5005 21.6113 60.2288 21.6113 53.7857V24.079C21.6113 17.6358 27.0113 12.3642 33.6113 12.3642H57.8513C64.4513 12.3642 69.8513 17.6358 69.8513 24.079V53.7857C69.8513 60.2288 64.4513 65.5005 57.8513 65.5005Z" fill="#689BBE"/>
<path d="M39.3515 70.9281C39.3515 71.9727 39.4115 73.027 39.3415 74.0716C39.2215 75.7703 38.5815 77.2346 36.8515 77.9082C35.1315 78.572 33.4915 78.2889 32.0815 77.0784C28.5015 74.013 27.0215 69.8738 26.3415 65.5003C25.7615 61.8004 25.8115 58.0028 25.4115 54.2736C25.2315 52.6043 24.9815 50.7982 24.2015 49.3437C20.9415 43.291 20.4115 37.0138 22.1615 30.5024C23.9515 23.8347 31.2415 17.4502 40.4815 21.9408C44.0615 23.6785 47.4315 23.6785 50.9915 21.9408C60.0415 17.5087 67.6215 23.6688 69.4715 31.0491C71.1015 37.5508 70.3515 43.7401 67.0615 49.6853C66.3515 50.9642 66.1015 52.614 66.0715 54.0979C65.9315 60.4727 65.7915 66.8475 62.7315 72.6854C61.9415 74.1985 60.8015 75.5652 59.6215 76.8343C58.2715 78.2889 56.4615 78.6404 54.5815 77.8984C52.6915 77.1467 52.0715 75.5457 52.1115 73.6909C52.1815 69.786 52.0415 65.8908 50.4315 62.2494C49.9315 61.1073 49.1015 59.9455 48.1015 59.1938C46.0015 57.6026 42.7415 58.4128 41.6315 61.117C40.3615 64.2117 39.7415 67.5601 38.8415 70.8012C39.0015 70.8403 39.1715 70.8891 39.3515 70.9281ZM50.4515 25.0745C51.7715 25.1917 52.5715 25.26 53.3715 25.3284C54.3515 25.4065 55.5115 25.5334 55.2915 26.7634C55.2115 27.2222 54.0315 27.6225 53.2915 27.808C52.7215 27.9544 52.0215 27.8177 51.4215 27.642C47.3115 26.4705 43.0515 25.631 39.1615 23.9714C33.3215 21.4722 27.1915 23.8347 24.9015 30.2779C22.7915 36.2329 23.1915 42.1976 26.3015 47.8207C27.4715 49.9489 28.0015 52.0966 27.9315 54.5274C27.7915 59.4769 28.1115 64.4264 29.8915 69.1124C30.6415 71.0941 31.8915 72.9294 33.1815 74.6476C33.6515 75.2724 34.9715 75.7214 35.7415 75.5457C36.2615 75.4286 36.6915 74.1107 36.8015 73.2906C36.9815 71.8946 36.6915 70.4303 36.9315 69.044C37.4115 66.3301 37.8515 63.5478 38.8215 60.9803C40.3615 56.9095 44.1015 55.1425 47.8915 56.3335C50.6615 57.2121 52.3715 59.3207 52.9715 61.898C53.8015 65.5393 54.0615 69.2978 54.6615 72.9977C54.8115 73.9349 55.3715 74.8038 55.7415 75.7019C56.6615 75.2919 57.8315 75.0967 58.4415 74.4231C59.5015 73.2418 60.4215 71.8458 61.0415 70.3912C63.2315 65.2172 63.4315 59.7405 63.5715 54.2248C63.6215 52.1454 64.1115 49.9001 65.0715 48.0648C68.0115 42.4124 68.4915 36.6331 66.7015 30.6586C64.5715 23.5419 57.3515 20.9158 50.4515 25.0745Z" fill="white"/>
<path d="M39.9016 66.6232C39.9016 66.6232 39.3416 70.4305 39.3516 71.7777C39.3616 73.1249 37.8016 73.9937 37.6716 73.3397C37.5416 72.6856 38.4716 67.1699 38.4716 67.1699L39.9016 66.4279" fill="white"/>
<path d="M54.6714 73.0075C54.6714 73.0075 55.2914 76.2103 58.1614 74.687L57.0714 76.1615L54.6714 76.8157V73.0075Z" fill="white"/>
<path d="M43.8512 24.4206C44.2312 24.5475 48.8013 23.1612 49.8113 22.9855C50.8313 22.8098 54.2412 21.4431 56.4112 21.6969C58.5812 21.9507 60.9812 21.9214 62.1212 23.0441C63.2612 24.1668 63.9012 24.7916 64.5312 25.6604C65.1613 26.5292 65.3512 26.9002 66.4613 28.0131C67.5713 29.126 68.5912 30.4927 68.5912 31.3616C68.5912 32.2304 68.5912 35.3251 68.5912 35.3251C68.5912 35.3251 68.8412 39.9622 68.5912 40.8603C68.3412 41.7682 68.5513 42.7542 67.7412 44.1209C66.9312 45.4877 66.9912 45.6048 66.4613 46.9715C65.9212 48.3383 65.9213 48.7092 65.5413 50.0662C65.1613 51.4329 64.7812 55.5136 64.7812 56.1384C64.7812 56.7631 63.1312 67.5407 63.1312 67.5407L58.8213 74.921L55.2712 76.6587C55.2712 76.6587 53.4912 70.9868 53.3712 70.0106C53.2412 69.0246 51.0912 61.9665 51.0912 61.9665L48.1012 59.194L43.8512 57.3782L41.3113 59.7309L38.7712 64.0654L38.8212 70.8013L35.8512 77.3226L28.6213 71.1235L25.9513 62.2984L26.4612 54.4788L24.6312 46.9715L22.5312 40.0305V32.8455L24.6312 26.5292L29.6412 22.9855L34.5912 21.6676L41.8212 23.6787L43.8512 24.4206Z" fill="white"/>
</svg>
