<svg width="103" height="103" viewBox="0 0 103 103" fill="none" xmlns="http://www.w3.org/2000/svg">
<path d="M51.5 101.014C78.8381 101.014 101 78.8518 101 51.5137C101 24.1756 78.8381 2.01367 51.5 2.01367C24.1619 2.01367 2 24.1756 2 51.5137C2 78.8518 24.1619 101.014 51.5 101.014Z" stroke="#689BBE" stroke-width="3" stroke-miterlimit="10"/>
<path d="M67.9936 81.0137C65.5378 80.315 62.9373 79.9194 60.6469 78.8612C42.6293 70.5388 29.3888 57.3772 20.8789 39.5305C19.0073 35.6005 18.3921 31.5061 19.6846 27.309C21.6078 21.0518 26.142 19.2076 31.3586 19.0175C34.0987 18.9199 35.9961 20.6974 37.0663 23.153C38.607 26.6823 40.0805 30.2372 41.5281 33.7973C42.5828 36.3865 41.8228 38.6674 39.4032 40.5477C36.7664 42.5871 36.6113 43.3937 38.5139 46.0137C42.8826 52.0294 48.1096 57.2026 54.1947 61.5024C56.6401 63.2337 57.4363 63.0693 59.2769 60.6188C61.4431 57.7369 63.6249 57.1923 66.8872 58.5999C69.9634 59.9253 73.0602 61.2148 76.1778 62.4323C80.107 63.9683 81.6167 66.6089 80.774 70.6776C79.4091 77.3097 75.1231 80.6695 67.9936 81.0137Z" fill="#689BBE"/>
</svg>
