<svg width="103" height="103" viewBox="0 0 103 103" fill="none" xmlns="http://www.w3.org/2000/svg">
<path d="M51.5 101.014C78.8381 101.014 101 78.8518 101 51.5137C101 24.1756 78.8381 2.01367 51.5 2.01367C24.1619 2.01367 2 24.1756 2 51.5137C2 78.8518 24.1619 101.014 51.5 101.014Z" stroke="#689BBE" stroke-width="3" stroke-miterlimit="10"/>
<path d="M50.9844 21.5C62.7543 21.6324 72.8864 29.481 75.7373 40.6602L75.8672 41.1953C76.5676 44.2162 76.6411 47.2696 76.3047 50.3486L76.2324 50.9648C75.3746 57.7328 72.7502 63.8299 69.0488 69.5166L68.2939 70.6484C63.9981 76.9451 58.802 82.4212 52.8398 87.1875L51.6367 88.1309C51.2112 88.458 51.072 88.5007 50.9971 88.501C50.923 88.5012 50.7832 88.4604 50.3564 88.1338H50.3574C45.5004 84.4066 41.1469 80.1776 37.29 75.46L36.5244 74.5098C33.6464 70.8781 31.1654 67.0176 29.2432 62.833L28.8662 61.9912C26.8322 57.3376 25.6135 52.5248 25.5078 47.4854L25.501 46.4746C25.6041 34.763 34.0759 24.5641 45.6377 22.1748L46.1904 22.0664C47.7603 21.7782 49.3368 21.6885 50.9844 21.5ZM50.9971 34.9004C44.9152 34.9044 39.959 39.7779 39.957 45.7881L39.9717 46.3516C40.2662 52.1333 45.0963 56.7215 51.001 56.7217C56.9041 56.7217 61.7381 52.1243 62.0273 46.3467L62.041 45.7832C62.033 39.9599 57.3774 35.2022 51.5635 34.9141L50.9971 34.9004Z" fill="#689BBE" stroke="#689BBE"/>
</svg>
