<svg width="134" height="65" viewBox="0 0 134 65" fill="none" xmlns="http://www.w3.org/2000/svg">
<path d="M97.86 29.9128C97.86 30.4328 97.86 30.9528 97.86 31.4728C97.86 34.7028 97.84 37.9328 97.87 41.1628C97.88 41.7828 97.71 42.0028 97.08 41.9428C96.45 41.8928 95.81 41.8828 95.18 41.9428C94.47 42.0128 94.25 41.8028 94.25 41.0528C94.29 35.7228 94.27 30.3928 94.27 25.0728C94.27 22.9128 94.27 22.9928 96.39 22.8828C97.6 22.8228 98.25 23.2328 98.85 24.2628C100.85 27.6928 102.96 31.0528 105.03 34.4428C105.2 34.7128 105.38 34.9828 105.69 35.4628C105.72 34.9528 105.75 34.6728 105.75 34.3928C105.75 30.8628 105.77 27.3228 105.74 23.7928C105.73 23.1328 105.88 22.8428 106.6 22.9028C107.31 22.9628 108.04 22.9328 108.75 22.9128C109.18 22.9028 109.32 23.0528 109.32 23.4828C109.31 29.4428 109.31 35.4028 109.32 41.3728C109.32 41.8828 109.11 41.9628 108.68 41.9528C107.88 41.9228 107.08 41.9028 106.28 41.9628C105.68 42.0028 105.35 41.8028 105.03 41.2828C102.88 37.7128 100.69 34.1728 98.52 30.6228C98.37 30.3728 98.2 30.1328 98.04 29.8828C97.98 29.8728 97.92 29.8928 97.86 29.9128Z" fill="#0E1F35"/>
<path d="M22.9799 32.7228C22.9899 30.7828 23.1899 29.1528 23.8699 27.6128C25.4399 24.0628 28.9699 22.1628 33.0899 22.6128C38.1899 23.1728 41.1 26.4428 41.34 31.8728C41.4 33.1428 41.2899 34.4128 40.9799 35.6528C40.0799 39.3028 37.5399 41.5928 33.7299 42.1928C29.4099 42.8728 25.4899 40.9428 23.8799 37.3028C23.1999 35.7628 22.9599 34.1328 22.9799 32.7228ZM26.9499 32.4128C26.9099 33.1428 26.9899 33.9028 27.1499 34.6628C27.6699 37.2428 29.5599 38.9228 31.9899 38.9828C34.6299 39.0428 36.4699 37.5828 37.1199 34.8728C37.5199 33.2128 37.5199 31.5328 37.1199 29.8728C36.5199 27.3528 34.7699 25.9028 32.3299 25.8728C29.7599 25.8328 27.9399 27.2228 27.2599 29.7528C27.0099 30.5928 26.9199 31.4728 26.9499 32.4128Z" fill="#0E1F35"/>
<path d="M56.04 28.4828C56.04 28.4828 55.92 28.4628 55.82 28.4828C54.9 28.6428 54.2 28.5328 54 27.3928C53.9 26.8128 53.43 26.3728 52.86 26.1628C51.43 25.6128 49.99 25.6028 48.61 26.3028C47.39 26.9228 47.39 28.2928 48.57 28.9828C49.48 29.5128 50.52 29.7428 51.53 30.0028C52.81 30.3228 54.1 30.6428 55.32 31.1728C57.59 32.1628 58.73 33.9128 58.69 36.3728C58.65 38.8128 57.53 40.6528 55.26 41.5628C52.66 42.6028 49.96 42.6228 47.34 41.6328C44.92 40.7228 43.85 38.7228 43.4 36.3128C43.33 35.9328 43.44 35.7428 43.84 35.7128C44.25 35.6928 44.66 35.6428 45.08 35.6128C45.66 35.5628 46.27 35.3528 46.8 35.4928C47.44 35.6528 47.26 36.4528 47.5 36.9528C48.59 39.1928 52.47 39.8328 54.2 38.0228C55.32 36.8528 55.04 35.3028 53.56 34.6528C52.29 34.0928 50.92 33.8728 49.6 33.5028C48.54 33.2028 47.48 32.8828 46.54 32.2828C44.87 31.2328 43.97 29.7128 44.06 27.7228C44.15 25.7728 45.09 24.2628 46.86 23.4528C49.61 22.1928 52.45 22.2328 55.2 23.4728C56.93 24.2528 57.81 25.7728 58.12 27.6328C58.21 28.1728 58.11 28.4728 57.47 28.4328C57.03 28.3828 56.58 28.4428 56.04 28.4828Z" fill="#0E1F35"/>
<path d="M61.95 32.4828C61.95 29.5328 61.9599 26.5728 61.9399 23.6228C61.9399 23.1028 62.0499 22.8828 62.6199 22.8928C65.5199 22.9528 68.4199 22.8128 71.3199 23.0228C74.2399 23.2228 76.15 25.0928 76.39 28.0328C76.56 30.1228 76.1299 31.9928 74.4399 33.3928C73.4999 34.1728 72.3799 34.5328 71.1699 34.6328C69.6499 34.7628 68.1299 34.8128 66.6199 34.7528C65.9099 34.7228 65.7499 34.9628 65.7599 35.6428C65.7999 37.5228 65.7599 39.3928 65.7899 41.2728C65.7999 41.7628 65.69 41.9628 65.15 41.9328C64.3 41.8928 63.44 41.8928 62.58 41.9328C62.03 41.9628 61.95 41.7328 61.95 41.2528C61.96 38.3328 61.95 35.4128 61.95 32.4828ZM65.77 28.8428C65.77 29.5628 65.78 30.2728 65.77 30.9928C65.77 31.3128 65.83 31.5228 66.21 31.5128C67.61 31.4728 69.0299 31.6228 70.4199 31.3428C71.6899 31.0828 72.4899 30.0928 72.4899 28.8228C72.4899 27.5728 71.7299 26.6228 70.4899 26.3228C69.8099 26.1528 69.1199 26.1728 68.4299 26.1728C67.5799 26.1728 66.4799 25.8128 65.9399 26.3028C65.3899 26.8028 65.8199 27.9128 65.7599 28.7628C65.7599 28.7828 65.76 28.8128 65.77 28.8428Z" fill="#0E1F35"/>
<path d="M86.4199 29.7328C86.4199 27.6928 86.4299 25.6428 86.4099 23.6028C86.3999 23.0828 86.5399 22.8628 87.0999 22.8928C87.9499 22.9428 88.8099 22.9228 89.6699 22.9028C90.0999 22.8928 90.2499 23.0528 90.2399 23.4828C90.1599 27.9828 90.4099 32.4828 90.0999 36.9828C89.8799 40.1628 87.71 42.1728 84.52 42.2628C83.8 42.2828 83.09 42.2828 82.38 42.1428C79.21 41.5328 78.1799 38.9628 78.1199 36.5328C78.1099 36.1328 78.34 36.0828 78.63 36.0428C79.51 35.9428 80.39 35.8628 81.26 35.7428C81.63 35.6928 81.7599 35.8228 81.7899 36.1728C81.8099 36.5028 81.8499 36.8328 81.9199 37.1528C82.2799 38.6528 83.46 39.3328 84.94 38.9028C85.54 38.7328 85.95 38.3528 86.13 37.7428C86.36 36.9628 86.4099 36.1628 86.4099 35.3628C86.4299 33.4828 86.4199 31.6028 86.4199 29.7328Z" fill="#0E1F35"/>
<path d="M120.42 63.4131H13.7C7.09995 63.4131 1.69995 58.0131 1.69995 51.4131V13.4431C1.69995 6.84312 7.09995 1.44312 13.7 1.44312H120.42C127.02 1.44312 132.42 6.84312 132.42 13.4431V51.4131C132.42 58.0131 127.02 63.4131 120.42 63.4131Z" stroke="#0E1F35" stroke-width="2" stroke-miterlimit="10"/>
</svg>
