<svg width="111" height="65" viewBox="0 0 111 65" fill="none" xmlns="http://www.w3.org/2000/svg">
<path d="M71.3002 40.8236C71.1902 40.8436 71.0901 40.8736 70.9801 40.8736C69.8901 40.8736 68.8101 40.8736 67.7201 40.8736C67.6101 40.8736 67.5001 40.8736 67.4001 40.8136C67.4001 36.5536 67.4102 32.3036 67.4102 28.0436C67.4102 27.9836 67.4501 27.8936 67.3301 27.8736C67.2101 28.1036 67.0801 28.3436 67.0201 28.6036C66.5301 29.6936 66.0402 30.7936 65.5602 31.8836C64.6902 33.8836 63.8101 35.8736 62.9501 37.8836C62.8601 38.0836 62.7601 38.1836 62.5201 38.1836C61.5901 38.1736 60.6501 38.1736 59.7201 38.1836C59.4701 38.1836 59.3601 38.0836 59.2601 37.8736C57.8701 34.7836 56.4801 31.6836 55.0801 28.5936C55.0201 28.4636 54.9601 28.3436 54.8801 28.1936C54.7701 28.3836 54.8102 28.5436 54.8102 28.7036C54.8102 32.6036 54.8102 36.5136 54.8102 40.4136C54.8102 40.8736 54.8101 40.8836 54.3301 40.8836C53.3201 40.8836 52.3202 40.8736 51.3102 40.8936C51.0302 40.8936 50.9302 40.8336 50.9302 40.5336C50.9402 34.5336 50.9402 28.5236 50.9302 22.5236C50.9302 22.2136 51.0301 22.1436 51.3301 22.1436C52.7501 22.1536 54.1701 22.1636 55.5901 22.1436C55.8901 22.1436 56.0301 22.2436 56.1501 22.5136C57.7701 26.2036 59.4002 29.8936 61.0302 33.5836C61.0602 33.6636 61.1001 33.7336 61.1401 33.8136C61.2901 33.7736 61.3001 33.6336 61.3501 33.5336C62.9301 29.8536 64.5201 26.1736 66.0901 22.4836C66.2001 22.2236 66.3301 22.1436 66.6001 22.1536C68.1501 22.1636 69.7001 22.1536 71.2601 22.1536C71.2701 22.2836 71.2802 22.4236 71.2802 22.5536C71.2802 25.6536 71.2802 28.7636 71.2802 31.8636C71.3002 34.8336 71.3002 37.8236 71.3002 40.8236Z" fill="#0E1F35"/>
<path d="M30.9802 31.8236C30.9902 29.6636 31.2202 27.8836 32.0302 26.2236C33.2102 23.8136 35.2002 22.5036 37.8002 22.0636C39.5202 21.7736 41.2302 21.8236 42.9102 22.3036C45.5502 23.0536 47.2801 24.7936 48.0701 27.3736C48.9501 30.2336 48.9501 33.1436 47.9401 35.9836C47.0001 38.6136 45.1102 40.2336 42.3702 40.8436C40.3802 41.2936 38.3901 41.2436 36.4501 40.6236C33.6701 39.7336 32.0902 37.7336 31.3602 34.9836C31.0702 33.8336 30.9702 32.6636 30.9802 31.8236ZM44.4102 31.5536C44.4102 30.8036 44.3702 30.0536 44.2402 29.3136C44.0602 28.2836 43.7502 27.3136 43.0402 26.5136C41.8602 25.1836 39.8001 24.9636 38.1901 25.4836C36.5101 26.0336 35.7701 27.3636 35.4501 28.9836C35.1301 30.6436 35.1501 32.3136 35.4501 33.9636C35.6201 34.9036 35.9402 35.7936 36.6202 36.5036C37.7302 37.6836 39.1502 37.9036 40.6702 37.7036C42.2802 37.4836 43.3602 36.5836 43.9202 35.0536C44.3302 33.9236 44.4002 32.7436 44.4102 31.5536Z" fill="#0E1F35"/>
<path d="M78.2902 35.9436C77.8302 37.4236 77.3502 38.8936 76.9102 40.3836C76.8002 40.7536 76.6501 40.9036 76.2501 40.8836C75.2601 40.8436 74.2601 40.8736 73.2701 40.8736C72.7001 40.8736 72.7001 40.8736 72.8701 40.3536C73.7901 37.4936 74.7201 34.6436 75.6401 31.7836C76.6501 28.6736 77.6602 25.5636 78.6602 22.4536C78.7402 22.2136 78.8501 22.1336 79.0901 22.1336C80.8901 22.1436 82.6801 22.1436 84.4801 22.1336C84.7401 22.1336 84.8402 22.2236 84.9102 22.4536C86.0302 25.9436 87.1602 29.4336 88.2902 32.9336C89.0902 35.4236 89.9001 37.9136 90.7001 40.4036C90.8601 40.8836 90.8601 40.8836 90.3401 40.8836C89.2601 40.8836 88.1801 40.8736 87.1001 40.8936C86.8501 40.8936 86.7402 40.8136 86.6702 40.5736C86.2402 39.1236 85.7901 37.6836 85.3401 36.2336C85.3101 36.1436 85.2601 36.0536 85.2201 35.9736C85.1401 35.8336 85.0001 35.8936 84.9001 35.8936C82.8101 35.8936 80.7201 35.8936 78.6301 35.8936C78.5101 35.8736 78.3802 35.8236 78.2902 35.9436ZM81.7902 24.7736C81.6902 24.8336 81.6701 24.9036 81.6501 24.9736C80.9001 27.4136 80.1501 29.8536 79.3901 32.2836C79.3001 32.5836 79.4202 32.6036 79.6602 32.6036C81.0502 32.5936 82.4501 32.5836 83.8401 32.6036C84.2001 32.6136 84.2001 32.5036 84.1101 32.2136C83.5401 30.4036 82.9902 28.5836 82.4302 26.7736C82.2102 26.1036 82.0002 25.4436 81.7902 24.7736Z" fill="#0E1F35"/>
<path d="M28.7401 31.4936C28.7401 34.4836 28.7301 37.4836 28.7501 40.4736C28.7501 40.7936 28.6701 40.8836 28.3501 40.8836C27.2201 40.8636 26.0901 40.8636 24.9701 40.8836C24.6901 40.8836 24.6001 40.8036 24.6001 40.5136C24.6101 34.5136 24.6101 28.5136 24.6001 22.5136C24.6001 22.2036 24.7001 22.1336 24.9901 22.1336C26.1201 22.1436 27.2501 22.1536 28.3701 22.1336C28.6801 22.1236 28.7501 22.2236 28.7501 22.5236C28.7301 25.5036 28.7401 28.5036 28.7401 31.4936Z" fill="#0E1F35"/>
<path d="M97.7101 63.4131H13.6201C7.02012 63.4131 1.62012 58.0131 1.62012 51.4131V13.4431C1.62012 6.84312 7.02012 1.44312 13.6201 1.44312H97.7101C104.31 1.44312 109.71 6.84312 109.71 13.4431V51.4131C109.71 58.0131 104.31 63.4131 97.7101 63.4131Z" stroke="#0E1F35" stroke-width="2" stroke-miterlimit="10"/>
</svg>
