<svg width="181" height="65" viewBox="0 0 181 65" fill="none" xmlns="http://www.w3.org/2000/svg">
<path d="M25.2901 34.8733C25.5001 34.9033 25.7201 34.9233 25.9301 34.9233C28.6601 34.9233 31.78 32.5533 33.22 30.2633C34.64 27.8633 34.99 25.0033 34.23 21.9933C34.11 21.2833 33.6501 20.9633 33.2801 20.9633C33.1401 20.9633 33.03 21.0033 32.96 21.0833C32.7 21.4233 32.5801 21.6433 32.4201 21.9533C32.1301 22.3933 32.14 22.8533 32.45 23.4233C32.95 24.3033 33.8401 28.0033 32.6601 29.9033C31.3601 32.0433 29.75 33.0933 27.71 33.0933C27.25 33.0933 26.83 33.0433 26.45 32.9933C26.4 32.9833 26.3401 32.9733 26.2801 32.9633C26.1601 32.9333 26.02 32.9133 25.87 32.9133C25.54 32.9133 25.29 33.0533 25.11 33.3433C25.09 33.3733 25.0701 33.4133 25.0401 33.4433C24.9001 33.6433 24.73 33.9233 24.7 34.1633C24.66 34.3733 24.6901 34.5433 24.7901 34.6633C24.8801 34.7833 25.0501 34.8533 25.2901 34.8733Z" fill="#0E1F35"/>
<path d="M32.98 31.4033L32.91 31.3533C29.99 34.6733 26.54 35.9133 25.05 35.9133H24.93C24.9 35.9033 24.88 35.9033 24.85 35.9033C24.26 35.9033 23.86 36.1133 23.6 36.5333C23.41 36.8033 23.31 36.9933 23.17 37.2933L23.11 37.4033C23.02 37.6133 23.02 37.8033 23.11 37.9533C23.23 38.1333 23.4799 38.2433 23.8199 38.2433C24.0099 38.2433 24.2199 38.2133 24.4399 38.1433C27.2599 37.3633 30.03 36.2533 32.98 31.4033Z" fill="#0E1F35"/>
<path d="M30.59 26.2133C31.93 27.8233 31.8501 29.9933 31.7501 30.8433L31.72 31.0333L31.82 30.8733C33.41 28.1333 32.6701 25.8333 31.7501 24.3833C31.5201 23.9733 31.2 23.8933 30.85 24.1433C30.66 24.2833 30.47 24.5933 30.34 24.8033C30.31 24.8533 30.2901 24.8833 30.2701 24.9233C29.9101 25.5033 30.2901 25.9033 30.5201 26.1333C30.5401 26.1633 30.57 26.1833 30.59 26.2133Z" fill="#0E1F35"/>
<path d="M32.73 36.1733C29.95 36.2033 27.3499 37.4033 25.2099 39.6533C24.7399 40.0633 24.66 40.5433 24.75 40.8433C24.81 41.0433 24.94 41.1933 25.1 41.2133C25.49 41.2533 25.75 41.2433 26.12 41.2133H26.14C26.65 41.2133 27.04 40.9633 27.35 40.4233C27.83 39.5233 30.4799 36.8333 32.6999 36.8333H32.78C36.97 36.8333 38.0699 39.3233 38.5899 40.5233C38.6099 40.5633 38.63 40.6233 38.66 40.6833C38.78 41.0033 38.96 41.4933 39.6 41.4933C39.63 41.4933 39.6699 41.4933 39.7199 41.4933H39.91C40.08 41.4933 40.33 41.4833 40.51 41.4133C40.7 41.3333 40.83 41.2133 40.88 41.0633C40.93 40.9133 40.91 40.7333 40.79 40.5133C39.66 37.8933 35.72 36.2133 32.73 36.1733Z" fill="#0E1F35"/>
<path d="M44.0099 39.5333C41.8799 37.5533 39.4999 35.7733 33.9099 35.7733H33.8298L33.8198 35.8533C38.5298 36.6833 41.2699 39.2033 41.8599 40.2933C42.1599 40.8533 42.5498 41.1033 43.0798 41.1033C43.1798 41.1133 43.2699 41.1133 43.3499 41.1133C43.5299 41.1133 43.6899 41.1033 43.8899 41.0833C43.9499 41.0733 44.0198 41.0633 44.0798 41.0633C44.3298 41.0233 44.4999 40.9033 44.5599 40.7033C44.6699 40.3833 44.4499 39.9333 44.0099 39.5333Z" fill="#0E1F35"/>
<path d="M31.72 37.4633C30.33 38.0033 29.2501 39.0333 28.5201 40.5133C28.4001 40.7233 28.3701 40.9133 28.4201 41.0733C28.4701 41.2233 28.5901 41.3433 28.7901 41.4233C28.9801 41.5033 29.2801 41.5133 29.4901 41.5133H29.6401H29.7501C30.4101 41.5133 30.5501 40.9933 30.6401 40.6733C30.6601 40.6233 30.6601 40.5933 30.6801 40.5633C31.3401 38.5533 33.2101 37.4933 33.9901 37.1333L34.1701 37.0533L33.97 37.0633C33.15 37.0633 32.39 37.2133 31.72 37.4633Z" fill="#0E1F35"/>
<path d="M46.2799 37.6233C46.1199 37.2333 45.9999 37.0433 45.8099 36.7233C45.5699 36.2633 45.1599 36.0333 44.5299 36.0033C43.5099 36.0033 39.8798 34.9233 38.8398 32.9433C36.8198 29.2133 38.4899 27.0333 39.2999 25.9833C39.3299 25.9433 39.3599 25.9033 39.3999 25.8633C39.6199 25.6033 39.9599 25.2033 39.6699 24.6433C39.6499 24.6033 39.6298 24.5633 39.6098 24.5133C39.4998 24.3033 39.3499 24.0233 39.1699 23.8733C38.8299 23.6033 38.5099 23.6633 38.2499 24.0433C36.4699 26.3033 36.8599 30.5833 38.2499 33.2633C39.5899 35.7033 41.8798 37.4333 44.8598 38.2733C45.0498 38.3433 45.2299 38.3833 45.4099 38.3833C45.7399 38.3833 46.0398 38.2533 46.1998 38.0333C46.2998 37.8933 46.3299 37.7433 46.2799 37.6233Z" fill="#0E1F35"/>
<path d="M37.4599 32.4333C35.9499 27.8833 36.8599 24.2533 37.5399 23.2133C37.8699 22.6833 37.9199 22.2133 37.6699 21.7533C37.5499 21.4733 37.4399 21.3033 37.2799 21.0533C37.2399 21.0033 37.1999 20.9533 37.1599 20.8733C37.0399 20.6933 36.8799 20.6033 36.7199 20.6033C36.3599 20.6033 36.0199 21.0133 35.8699 21.6633C35.1399 24.5133 34.7099 27.4733 37.3899 32.4633L37.4599 32.4333Z" fill="#0E1F35"/>
<path d="M38.3301 31.5633L38.4202 31.7333C39.9102 34.3833 42.1501 34.9433 43.7701 34.9433C43.8701 34.9433 43.9602 34.9333 44.0502 34.9333C44.2902 34.9333 44.4701 34.8733 44.5801 34.7533C44.6801 34.6433 44.7201 34.4733 44.7001 34.2633C44.6801 34.0333 44.5001 33.7033 44.3801 33.4833C44.3601 33.4333 44.3402 33.3933 44.3102 33.3533C44.1502 33.0433 43.9101 32.8933 43.5901 32.8933C43.4301 32.8933 43.2701 32.9233 43.1501 32.9533C43.1101 32.9633 43.0702 32.9733 43.0302 32.9833C42.7702 33.0333 42.5101 33.0533 42.2401 33.0533C40.4901 33.0533 39.0201 32.0833 38.4601 31.6733L38.3301 31.5633Z" fill="#0E1F35"/>
<path d="M68.5501 40.1833V39.9933L68.5301 33.9433C68.5301 33.5533 68.5301 33.1433 68.6601 32.8433L68.6701 32.6733L64.6701 32.6833V32.8733L64.71 32.8933C65.83 33.3633 65.83 34.6533 65.83 35.8033L65.84 39.5433C64.78 39.8633 63.5901 40.0333 62.3801 40.0333C58.3601 40.0333 55.21 36.7933 55.2 32.6533C55.2 30.6333 55.8801 28.9033 57.1801 27.6533C58.4201 26.4633 60.1601 25.8033 62.1101 25.8033C63.0501 25.8033 65.3601 25.9533 66.5601 27.3433L66.58 27.3633H66.7501V24.2233L66.7 24.2133C65.32 23.9133 64.01 23.7633 62.7 23.7633C59.64 23.7733 57.0201 24.6333 55.1301 26.2533C53.2001 27.9133 52.18 30.2533 52.19 33.0133C52.2 38.5033 56.2601 42.0333 62.5401 42.0333H62.57C64.67 42.0333 66.7801 41.6133 68.6401 41.2433L68.72 41.2333L68.69 41.1533C68.54 40.8633 68.5501 40.5233 68.5501 40.1833Z" fill="#0E1F35"/>
<path d="M85.5001 38.0633C85.4501 37.9433 85.4001 37.8233 85.3601 37.6933L80.0602 24.1633L75.9401 24.1733V24.3533L75.9901 24.3633C76.3201 24.4733 76.5301 24.6333 76.6401 24.8533C76.8701 25.3133 76.6201 25.9633 76.3901 26.6033L72.1201 37.6933C72.0701 37.8233 72.0301 37.9433 71.9801 38.0633C71.4801 39.4233 71.0101 40.7133 69.6901 41.3933L69.6602 41.4133V41.6033H74.4501V41.4033L74.4102 41.3933C73.2802 40.9533 73.3901 40.2933 73.9401 38.7633L75.2401 35.0933L81.5402 35.0833L82.8901 38.7433L83.0101 39.0533C83.6001 40.6133 83.6901 40.8633 82.5801 41.3733L82.5402 41.3933V41.5833L87.8701 41.5733V41.3933L87.8301 41.3733C86.5101 40.7133 86.0201 39.4333 85.5001 38.0633ZM80.7401 33.0233H75.9401L78.3501 26.6533L80.7401 33.0233Z" fill="#0E1F35"/>
<path d="M100.75 37.9733C99.44 39.1233 97.9401 39.6633 96.3101 39.5633L92.9301 39.3333L92.92 27.9233C92.92 27.7933 92.92 27.6633 92.92 27.5333C92.9 26.3733 92.88 24.7833 93.99 24.3533L94.03 24.3233V24.1533H89.0601V24.3333L89.1 24.3533C90.24 24.7933 90.22 26.4033 90.21 27.5833C90.21 27.7033 90.2 27.8133 90.2 27.9233L90.21 37.8433C90.21 37.9333 90.21 38.0433 90.22 38.1433C90.24 39.3433 90.27 40.9633 89.13 41.3933L89.09 41.4033V41.5833H99.61L100.97 37.9433H100.79L100.75 37.9733Z" fill="#0E1F35"/>
<path d="M113.33 38.0133C112.24 39.0133 110.75 39.5833 109.24 39.5833C109.05 39.5833 108.87 39.5733 108.69 39.5533L105.53 39.2433L105.52 33.1333H107.49C108.15 33.1333 109.16 33.1333 109.54 33.8233L109.56 33.8633H109.74V30.9433H109.6H109.57C109.28 31.0933 108.88 31.0933 108.49 31.0933H105.54L105.53 26.3233C106.34 26.1633 107.22 26.1433 108.05 26.1433C109.15 26.1433 110.21 26.2233 110.99 27.1633L111.02 27.1833H111.19L111.18 23.9833H111.03L111.01 23.9933C110.81 24.1033 110.57 24.1133 110.33 24.1133H110.1C110.01 24.1133 109.93 24.1033 109.85 24.1033L101.68 24.1133V24.2933L101.72 24.3033C102.86 24.7433 102.84 26.3633 102.83 27.5433C102.83 27.6633 102.83 27.7733 102.83 27.8733L102.84 37.7833C102.84 37.8933 102.84 38.0133 102.84 38.1333C102.85 39.3133 102.87 40.9133 101.74 41.3333L101.7 41.3533V41.5533L112.32 41.5433H112.37L113.56 37.9633H113.36L113.33 38.0133Z" fill="#0E1F35"/>
<path d="M126.92 24.3033L126.95 24.3233C128.24 25.0833 128.24 26.0533 128.24 27.5133L128.25 37.3633L119.09 25.3733L118.72 24.8333C118.55 24.6333 118.46 24.5133 118.36 24.2233V24.1333H114.53V24.3133L114.56 24.3233C115.84 25.0833 115.85 26.1233 115.85 27.5733L115.86 38.0833C115.87 39.5233 115.87 40.5733 114.56 41.3633L114.53 41.3833V41.5733L119.14 41.5633V41.3733L119.11 41.3533C117.82 40.5733 117.82 39.5533 117.82 38.1433L117.81 28.0933L126.4 39.3633C127.47 40.8133 128.25 41.7333 130.14 42.3833L130.22 42.4133L130.2 27.5633C130.2 26.1133 130.2 25.0633 131.48 24.2933L131.51 24.2733V24.1033H126.92V24.3033Z" fill="#0E1F35"/>
<path d="M141.61 23.6533H141.46C139.07 23.6233 136.81 24.5533 135.13 26.2533C133.41 27.9933 132.44 30.4033 132.47 32.8733C132.53 38.0533 136.33 41.9633 141.32 41.9633H141.42C143.79 41.9333 146 40.9733 147.66 39.2533C149.34 37.4933 150.26 35.1033 150.23 32.5333C150.18 27.5533 146.4 23.6533 141.61 23.6533ZM147.36 33.1033C147.38 35.2033 146.72 37.0533 145.5 38.3033C144.46 39.3633 143.08 39.9233 141.5 39.9433H141.43C137.71 39.9433 135.36 36.1433 135.32 32.6133C135.28 28.5133 137.68 25.7233 141.3 25.6833H141.37C145.21 25.6833 147.32 29.5033 147.36 33.1033Z" fill="#0E1F35"/>
<path d="M167.38 63.4131H13.05C6.45005 63.4131 1.05005 58.0131 1.05005 51.4131V13.4431C1.05005 6.84312 6.45005 1.44312 13.05 1.44312H167.38C173.98 1.44312 179.38 6.84312 179.38 13.4431V51.4131C179.38 58.0131 173.98 63.4131 167.38 63.4131Z" stroke="#0E1F35" stroke-width="2" stroke-miterlimit="10"/>
</svg>
