<svg width="52" height="51" viewBox="0 0 52 51" fill="none" xmlns="http://www.w3.org/2000/svg">
<path d="M25.9051 49.918C39.6598 49.918 50.8102 39.0643 50.8102 25.6755C50.8102 12.2868 39.6598 1.43311 25.9051 1.43311C12.1504 1.43311 1 12.2868 1 25.6755C1 39.0643 12.1504 49.918 25.9051 49.918Z" fill="#C7DBE0" stroke="#0E1F35" stroke-width="2" stroke-miterlimit="10"/>
<path d="M22.6271 37.1958C22.6271 37.8589 22.7208 38.5302 22.6101 39.1684C22.3036 40.942 20.4048 41.5968 18.9999 40.4199C17.1437 38.8783 16.3774 36.7649 16.0198 34.5271C15.7303 32.6954 15.6196 30.8306 15.5856 28.9824C15.5685 27.8718 15.3131 26.9021 14.8022 25.9159C12.9631 22.3603 12.7502 18.6887 14.5127 15.0834C16.122 11.7848 19.6129 10.5913 23.0103 12.1412C25.0282 13.0612 26.8418 13.086 28.8513 12.1329C33.2277 10.0526 37.1785 13.0031 38.1406 17.0062C38.924 20.2634 38.5408 23.3714 36.906 26.3468C36.5314 27.0265 36.3781 27.8967 36.3696 28.6841C36.31 31.8501 36.2164 35.0078 34.7774 37.9252C34.3772 38.7374 33.7897 39.475 33.1852 40.1629C32.4614 40.9752 31.4908 41.2238 30.452 40.7928C29.4388 40.3784 29.3025 39.4916 29.2003 38.5302C29.0045 36.6654 28.715 34.8006 28.417 32.9441C28.3659 32.6209 28.1445 32.3059 27.9487 32.0241C26.8759 30.4494 24.9175 30.4825 23.8958 32.0904C23.1806 33.1844 22.8655 34.552 22.6271 37.1958ZM24.4748 23.9267C25.3518 23.214 26.1862 22.5261 27.1483 21.7387C25.173 21.0922 23.4275 20.5287 21.5543 19.9153C23.9043 18.2743 26.101 16.741 28.2552 15.2409C26.3309 14.5862 24.3896 14.0723 22.5845 13.2684C19.4597 11.8843 16.4796 13.3512 15.3557 16.2935C14.2317 19.2357 14.3424 22.1863 15.7899 25.0042C16.5051 26.3883 16.8798 27.7558 16.8713 29.3305C16.8627 31.2036 17.1267 33.1016 17.4332 34.9581C17.6887 36.5245 18.3102 38.0081 19.5108 39.1518C19.8258 39.4502 20.4474 39.6988 20.839 39.6076C21.1115 39.5496 21.3073 38.8783 21.401 38.4556C21.4947 38.0329 21.418 37.5771 21.4266 37.1378C21.4351 35.3559 21.7075 33.6154 22.4824 31.991C23.3253 30.2339 24.8664 29.3637 26.6119 29.6869C28.434 30.0267 29.4132 31.3279 29.7708 32.9192C30.1795 34.7509 30.2562 36.6488 30.5201 38.5136C30.5797 38.9115 30.767 39.5248 31.031 39.6076C31.3886 39.7154 32.0357 39.5331 32.2826 39.243C32.8957 38.5302 33.4747 37.7428 33.8408 36.8892C34.9817 34.2536 35.0328 31.444 35.0839 28.626C35.1009 27.6895 35.433 26.7364 35.731 25.8247C36.0546 24.8384 36.6506 23.9267 36.8805 22.9322C37.5361 20.1143 37.4765 17.3378 35.7225 14.8514C34.0792 12.5307 30.9118 12.0583 28.5277 13.8237C29.7197 13.9314 30.7926 14.0309 32.0612 14.1552C29.4473 15.9785 26.9866 17.7024 24.3981 19.5092C26.1862 20.0894 27.7614 20.6032 29.3366 21.1171C29.3877 21.2166 29.4388 21.316 29.4984 21.4238C28.417 22.352 27.3357 23.2886 26.2543 24.2168C26.4331 24.482 26.5949 24.6064 26.6034 24.739C26.629 25.1202 26.5864 25.5015 26.5694 25.8827C26.2203 25.7418 25.803 25.6755 25.5561 25.4352C25.173 25.0871 24.9431 24.6146 24.4748 23.9267Z" fill="#0E1F35"/>
</svg>
