<svg width="53" height="51" viewBox="0 0 53 51" fill="none" xmlns="http://www.w3.org/2000/svg">
<path d="M26.6617 50.0065C40.3365 50.0065 51.4221 39.2159 51.4221 25.905C51.4221 12.5941 40.3365 1.80347 26.6617 1.80347C12.987 1.80347 1.90137 12.5941 1.90137 25.905C1.90137 39.2159 12.987 50.0065 26.6617 50.0065Z" fill="#C7DBE0"/>
<mask id="mask0_565_2021" style="mask-type:luminance" maskUnits="userSpaceOnUse" x="1" y="1" width="51" height="50">
<path d="M26.6617 50.0065C40.3365 50.0065 51.4221 39.2159 51.4221 25.905C51.4221 12.5941 40.3365 1.80347 26.6617 1.80347C12.987 1.80347 1.90137 12.5941 1.90137 25.905C1.90137 39.2159 12.987 50.0065 26.6617 50.0065Z" fill="white"/>
</mask>
<g mask="url(#mask0_565_2021)">
<path d="M24.533 12.5862C24.3968 12.5613 24.2776 12.5696 24.1754 12.5282C23.9796 12.4536 23.92 12.2878 23.92 12.0889C23.92 10.5971 23.92 9.10522 23.92 7.61338C23.92 7.29843 23.9115 6.98349 23.9625 6.67683C24.1243 5.76515 24.9673 5.08553 25.9124 5.07724C26.3722 5.06896 26.8405 5.05238 27.3002 5.11868C28.0155 5.21814 28.5093 5.64083 28.8244 6.27901C28.8669 6.37017 28.9691 6.46963 29.0628 6.49449C32.3834 7.4559 35.6956 8.40074 39.0163 9.35386C39.127 9.38701 39.2547 9.3953 39.3739 9.3953C41.0938 9.38701 42.8138 9.37872 44.5337 9.37872C45.547 9.37872 46.5517 9.3953 47.5649 9.3953C48.0588 9.3953 48.4164 9.61907 48.6718 10.0252C48.7144 10.0915 48.8251 10.1578 48.9102 10.1578C49.3359 10.1744 49.7617 10.1661 50.1874 10.1661C50.5876 10.1661 50.7323 10.307 50.7323 10.6882C50.7323 11.1524 50.7323 11.6165 50.7323 12.0889C50.7323 12.3873 50.5706 12.5447 50.264 12.553C49.8043 12.5613 49.353 12.5447 48.8932 12.5613C48.8166 12.5613 48.7144 12.6193 48.6803 12.6856C48.4249 13.1083 48.0588 13.3238 47.5564 13.3321C44.7636 13.3321 41.9794 13.3321 39.1866 13.3321C38.5565 13.3321 37.9605 13.1498 37.3645 12.984C34.6398 12.2049 31.9151 11.4259 29.1905 10.6385C29.1309 10.6219 29.0798 10.6136 28.9946 10.5888C28.9946 11.0363 28.9946 11.4756 28.9946 11.9066C28.9946 12.4536 28.935 12.5199 28.3731 12.6028C28.4157 12.7768 28.4497 12.9509 28.4923 13.1249C28.6541 13.8128 28.8158 14.5007 28.9776 15.1886C29.0628 15.5533 28.884 15.7605 28.4923 15.7605C27.1385 15.7605 25.7846 15.7605 24.4308 15.7605C24.0306 15.7605 23.8604 15.5533 23.9455 15.1638C24.1243 14.393 24.3116 13.6222 24.4989 12.8431C24.4989 12.7519 24.516 12.6773 24.533 12.5862ZM31.5405 8.0775C31.4298 8.04435 31.3532 8.01949 31.2766 7.99462C30.357 7.72941 29.4459 7.46419 28.5263 7.20726C28.2879 7.14096 28.1517 7.01664 28.0921 6.768C27.9644 6.24585 27.4961 5.90605 26.9426 5.89776C26.6531 5.88947 26.3636 5.89776 26.0656 5.89776C25.2653 5.89776 24.7714 6.37846 24.7714 7.16582C24.7714 8.59965 24.7714 10.0335 24.7714 11.4673C24.7714 11.5502 24.7799 11.6331 24.7799 11.7242C25.9039 11.7242 27.0108 11.7242 28.1347 11.7242C28.1347 11.6413 28.1347 11.5668 28.1347 11.4922C28.1347 11.0363 28.1347 10.5722 28.1347 10.1164C28.1347 9.6688 28.3561 9.51133 28.7988 9.64394C29.2586 9.77655 29.7184 9.90915 30.1782 10.0335C30.2463 10.05 30.374 10.0335 30.3996 9.99203C30.7827 9.36214 31.1488 8.73226 31.5405 8.0775ZM35.8914 11.6745C36.6152 11.8817 37.3049 12.0889 37.9945 12.2712C38.2755 12.3458 38.5565 12.437 38.846 12.4453C39.8763 12.4701 40.9065 12.4701 41.9453 12.4784C41.9623 12.4784 41.9879 12.4619 42.0049 12.4536C42.0049 11.7159 42.0049 10.9783 42.0049 10.2158C41.9112 10.2158 41.8261 10.2158 41.7495 10.2158C40.9406 10.2158 40.1317 10.2241 39.3228 10.2158C39.127 10.2158 38.9311 10.1827 38.7523 10.1329C38.2585 10.0003 37.7646 9.85114 37.2708 9.71024C37.1771 9.68538 37.092 9.65223 37.0239 9.76826C36.6492 10.3981 36.2746 11.0197 35.8914 11.6745ZM27.9984 14.8985C27.9984 14.8654 28.007 14.8405 28.007 14.8239C27.8452 14.1112 27.6749 13.4067 27.5046 12.6939C27.4876 12.6359 27.3854 12.5696 27.3173 12.5696C26.7383 12.5613 26.1678 12.5696 25.5888 12.5613C25.4526 12.5613 25.41 12.611 25.3845 12.7271C25.2482 13.3238 25.1035 13.9205 24.9673 14.5173C24.9417 14.6416 24.9162 14.7659 24.8906 14.8985C25.9379 14.8985 26.9682 14.8985 27.9984 14.8985ZM45.3852 10.2158C45.3852 10.9534 45.3852 11.6662 45.3937 12.379C45.3937 12.4121 45.5044 12.4784 45.564 12.4784C46.2111 12.4867 46.8667 12.4867 47.5138 12.4784C47.8033 12.4784 47.9396 12.3458 47.9396 12.064C47.9396 11.5916 47.9396 11.1192 47.9396 10.6468C47.9396 10.3318 47.8118 10.2158 47.4883 10.2158C46.9774 10.2158 46.4751 10.2158 45.9642 10.2158C45.7769 10.2158 45.5895 10.2158 45.3852 10.2158ZM42.8819 12.4619C43.4354 12.4619 43.9718 12.4619 44.5167 12.4619C44.5167 11.7077 44.5167 10.97 44.5167 10.2241C43.9633 10.2241 43.4354 10.2241 42.8819 10.2241C42.8819 10.9783 42.8819 11.7159 42.8819 12.4619ZM33.5414 11.0032C34.0097 11.1358 34.444 11.2518 34.8697 11.3844C35.023 11.4341 35.0826 11.3844 35.1507 11.2684C35.4657 10.7214 35.7893 10.1827 36.1128 9.64394C36.1554 9.57763 36.1895 9.50304 36.2405 9.42016C35.7637 9.27926 35.3039 9.14666 34.8527 9.02234C34.8101 9.01405 34.7164 9.0472 34.6994 9.08864C34.3077 9.71024 33.9331 10.3401 33.5414 11.0032ZM33.8905 8.74883C33.4137 8.60794 32.9539 8.47533 32.4941 8.3593C32.443 8.34272 32.3324 8.41731 32.2983 8.47533C31.9577 9.03891 31.6256 9.6025 31.2851 10.1661C31.2595 10.2158 31.2425 10.2655 31.2084 10.3318C31.6852 10.4727 32.1365 10.6053 32.5963 10.7297C32.6389 10.738 32.7155 10.7048 32.7411 10.6716C33.1242 10.0418 33.4988 9.40358 33.8905 8.74883ZM48.808 11.7077C49.1316 11.7077 49.4466 11.7077 49.7532 11.6994C49.7957 11.6994 49.8639 11.6413 49.8639 11.5999C49.8724 11.401 49.8724 11.2021 49.8724 10.9949C49.4977 10.9949 49.1571 10.9949 48.808 10.9949C48.808 11.2352 48.808 11.459 48.808 11.7077Z" fill="#0E1F35" stroke="#0E1F35" stroke-width="0.25" stroke-miterlimit="10"/>
</g>
<path d="M26.6617 50.0065C40.3365 50.0065 51.4221 39.2159 51.4221 25.905C51.4221 12.5941 40.3365 1.80347 26.6617 1.80347C12.987 1.80347 1.90137 12.5941 1.90137 25.905C1.90137 39.2159 12.987 50.0065 26.6617 50.0065Z" stroke="#0E1F35" stroke-width="2" stroke-miterlimit="10"/>
<path d="M25.1974 27.6206C24.9334 27.6952 24.695 27.7864 24.4396 27.8195C23.2646 27.977 22.2088 27.2145 22.0129 26.0873C21.8171 24.9767 22.5834 23.9159 23.7414 23.6921C23.8436 23.6755 23.8776 23.6341 23.8947 23.5346C24.1075 22.5318 24.9845 21.8356 26.0148 21.8356C27.0451 21.8356 27.9135 22.5318 28.1264 23.5263C28.1945 23.8247 28.186 24.1231 28.1094 24.4214C28.0838 24.5292 28.1009 24.5872 28.1945 24.6535C29.4802 25.5983 29.3185 27.488 27.888 28.209C27.011 28.6483 25.9467 28.4411 25.2655 27.6952C25.2315 27.662 25.2059 27.6289 25.1974 27.6206ZM22.5664 25.8387C22.5919 26.3525 22.8644 26.8167 23.4093 27.0985C23.9628 27.3802 24.5077 27.3388 25.0356 27.0073C25.274 26.8581 25.4103 26.883 25.555 27.115C25.9041 27.6703 26.5682 27.9521 27.2068 27.8278C27.8539 27.7035 28.3478 27.2062 28.4585 26.5763C28.5692 25.9381 28.2456 25.3 27.6666 24.9767C27.3942 24.8275 27.3771 24.7612 27.4793 24.4629C27.7007 23.8413 27.5815 23.2777 27.1047 22.8218C26.6278 22.366 26.0403 22.2583 25.4188 22.4986C24.8057 22.739 24.4822 23.2114 24.4311 23.8496C24.4141 24.0899 24.3289 24.1894 24.082 24.1977C23.2305 24.2474 22.5579 24.927 22.5664 25.8387Z" fill="#0E1F35" stroke="#0E1F35" stroke-miterlimit="10"/>
<path d="M23.3071 40.3676C23.3071 40.8815 23.3327 41.387 23.2986 41.9009C23.239 42.7297 22.9325 43.4424 22.081 43.7657C21.2381 44.0889 20.4377 43.948 19.7566 43.3596C18.0111 41.8677 17.2873 39.8537 16.9553 37.7237C16.6743 35.9252 16.6998 34.077 16.504 32.2619C16.4188 31.4497 16.2996 30.5712 15.9165 29.8667C14.3243 26.9162 14.0688 23.8662 14.9203 20.6919C15.7888 17.443 19.3564 14.3433 23.8606 16.523C25.6061 17.3684 27.2494 17.3684 28.9863 16.523C33.4054 14.3681 37.1092 17.3601 38.0118 20.9571C38.8036 24.1231 38.4375 27.1316 36.8368 30.0242C36.4877 30.6458 36.3685 31.4497 36.3514 32.1708C36.2833 35.2705 36.2152 38.3785 34.7252 41.2213C34.342 41.9589 33.7801 42.6219 33.2096 43.2352C32.5454 43.9397 31.6684 44.1138 30.7489 43.7491C29.8293 43.3844 29.5228 42.6054 29.5398 41.702C29.5738 39.7957 29.5057 37.9061 28.7224 36.1324C28.4755 35.5771 28.0753 35.0135 27.59 34.6406C26.5682 33.8615 24.976 34.2593 24.431 35.5771C23.8095 37.0855 23.5115 38.71 23.0687 40.293C23.1368 40.3262 23.222 40.3427 23.3071 40.3676ZM28.7309 18.048C29.378 18.106 29.7612 18.1392 30.1528 18.1723C30.6297 18.2138 31.2001 18.2718 31.0894 18.8685C31.0469 19.0923 30.4764 19.2829 30.1103 19.3741C29.8293 19.4404 29.4887 19.3741 29.1992 19.2912C27.1983 18.7193 25.1122 18.3132 23.2135 17.501C20.3611 16.2826 17.3725 17.4347 16.2571 20.5675C15.2268 23.4683 15.4226 26.3692 16.9382 29.1042C17.5087 30.1402 17.7727 31.1845 17.7386 32.3697C17.6705 34.7815 17.8238 37.185 18.6922 39.4642C19.0584 40.4256 19.6714 41.3207 20.3015 42.1578C20.5314 42.4645 21.1785 42.68 21.5531 42.5971C21.8086 42.5391 22.0214 41.9009 22.0725 41.4948C22.1577 40.8151 22.0129 40.1024 22.1406 39.4311C22.379 38.1133 22.5919 36.754 23.0602 35.5108C23.818 33.53 25.6401 32.668 27.4878 33.2482C28.8416 33.6792 29.676 34.6986 29.9655 35.9584C30.3742 37.732 30.4934 39.5637 30.7914 41.3622C30.8681 41.818 31.132 42.2407 31.3193 42.68C31.7706 42.481 32.3411 42.3899 32.6391 42.0584C33.1585 41.4865 33.6098 40.8069 33.9078 40.0941C34.9806 37.5745 35.0743 34.9141 35.1424 32.2288C35.1679 31.2176 35.4063 30.1236 35.8746 29.2285C37.3051 26.4769 37.5435 23.659 36.6665 20.7582C35.6192 17.3021 32.0942 16.0257 28.7309 18.048Z" fill="#0E1F35"/>
<path d="M23.5794 38.2708C23.5794 38.2708 23.307 40.1277 23.3155 40.7827C23.324 41.4376 22.5577 41.8604 22.4981 41.5454C22.43 41.2303 22.8898 38.5443 22.8898 38.5443L23.588 38.1879" fill="#0E1F35"/>
<path d="M30.7827 41.3787C30.7827 41.3787 31.0892 42.9373 32.4856 42.1994L31.9492 42.9207L30.7827 43.2357V41.3787Z" fill="#0E1F35"/>
<path d="M14.988 17.9153H16.8527L17.8234 19.1585C17.8234 19.1585 18.1214 20.3852 18.0362 20.4432C17.9511 20.4929 18.0533 20.9653 18.0533 20.9653L19.092 21.6201C19.092 21.6201 18.8026 23.1202 18.8281 23.1948C18.8536 23.2777 17.9596 24.38 17.8234 24.3386C17.6871 24.2971 15.6096 24.3386 15.6096 24.3386L14.8262 23.8496C14.8262 23.8496 12.7231 23.6092 12.5614 23.5346C12.3996 23.4517 11.4204 22.2914 11.4204 22.2914C11.4204 22.2914 11.446 21.3217 11.5226 21.1228C11.6077 20.9239 12.7742 20.0619 12.7742 20.0619L13.6683 19.6973L14.988 17.9153Z" fill="#C7DBE0"/>
<path d="M35.6955 15.7439H37.5602L38.5309 16.9871C38.5309 16.9871 38.8289 18.2137 38.7438 18.2717C38.6586 18.3215 38.7608 18.7939 38.7608 18.7939L39.7996 19.4486C39.7996 19.4486 39.5101 20.9488 39.5356 21.0234C39.5611 21.1062 38.6671 22.2085 38.5309 22.1671C38.3947 22.1257 36.3171 22.1671 36.3171 22.1671L35.5338 21.6781C35.5338 21.6781 33.4307 21.4378 33.2689 21.3632C33.1071 21.2886 32.1279 20.12 32.1279 20.12C32.1279 20.12 32.1535 19.1503 32.2301 18.9514C32.3152 18.7524 33.4817 17.8905 33.4817 17.8905L34.3758 17.5258L35.6955 15.7439Z" fill="#C7DBE0"/>
<path d="M14.8859 23.9822C14.5879 24.065 14.3069 24.1728 14.0174 24.2142C12.6721 24.3966 11.4631 23.518 11.2417 22.2251C11.0203 20.957 11.8973 19.7387 13.2171 19.4818C13.3363 19.4569 13.3703 19.4072 13.3959 19.2994C13.6428 18.1474 14.639 17.3518 15.8225 17.36C17.006 17.3683 17.9937 18.1557 18.2407 19.2912C18.3173 19.631 18.3088 19.9791 18.2151 20.3106C18.1811 20.4349 18.2066 20.5012 18.3088 20.5758C19.7818 21.6615 19.5945 23.8247 17.9597 24.6452C16.955 25.1508 15.7374 24.9104 14.9625 24.0568C14.9285 24.0236 14.8944 23.9905 14.8859 23.9822ZM11.8718 21.9433C11.9058 22.5318 12.2123 23.0705 12.8339 23.3854C13.464 23.7087 14.0941 23.6589 14.6986 23.286C14.9796 23.1119 15.1243 23.1368 15.2946 23.4103C15.6948 24.0485 16.4526 24.3717 17.1849 24.2308C17.9256 24.0816 18.4961 23.518 18.6153 22.797C18.743 22.0676 18.3769 21.3383 17.7042 20.9653C17.3892 20.7913 17.3722 20.7167 17.4914 20.3852C17.7468 19.6724 17.6106 19.0259 17.0571 18.5038C16.5122 17.9816 15.8395 17.8573 15.1328 18.1391C14.4346 18.4126 14.06 18.9513 14.0004 19.689C13.9834 19.9708 13.8812 20.0702 13.6002 20.0868C12.6296 20.1282 11.8632 20.899 11.8718 21.9433Z" fill="#0E1F35" stroke="#0E1F35" stroke-miterlimit="10"/>
<path d="M35.5255 21.5787C35.2616 21.6533 35.0232 21.7444 34.7677 21.7776C33.5927 21.9351 32.5369 21.1726 32.3411 20.0454C32.1452 18.9348 32.9115 17.8739 34.0695 17.6502C34.1717 17.6336 34.2058 17.5921 34.2228 17.4927C34.4356 16.4898 35.3127 15.7936 36.3429 15.7936C37.3732 15.7936 38.2417 16.4898 38.4545 17.4844C38.5226 17.7828 38.5141 18.0811 38.4375 18.3795C38.412 18.4872 38.429 18.5453 38.5226 18.6116C39.8083 19.5564 39.6466 21.4461 38.2161 22.1671C37.3391 22.6064 36.2748 22.3992 35.5936 21.6533C35.5596 21.6118 35.534 21.587 35.5255 21.5787ZM32.8945 19.7967C32.9201 20.3106 33.1925 20.7747 33.7375 21.0565C34.2909 21.3383 34.8358 21.2969 35.3637 20.9654C35.6022 20.8162 35.7384 20.841 35.8831 21.0731C36.2322 21.6284 36.8964 21.9102 37.535 21.7859C38.1821 21.6616 38.6759 21.1643 38.7866 20.5344C38.8973 19.8962 38.5737 19.258 37.9947 18.9348C37.7223 18.7856 37.7052 18.7193 37.8074 18.4209C38.0288 17.7993 37.9096 17.2358 37.4328 16.7799C36.956 16.3241 36.3685 16.2163 35.7469 16.4567C35.1339 16.697 34.8103 17.1694 34.7592 17.8076C34.7422 18.048 34.657 18.1474 34.4101 18.1557C33.5586 18.2055 32.886 18.8851 32.8945 19.7967Z" fill="#0E1F35" stroke="#0E1F35" stroke-miterlimit="10"/>
</svg>
