<svg width="53" height="51" viewBox="0 0 53 51" fill="none" xmlns="http://www.w3.org/2000/svg">
<path d="M26.3919 49.918C40.1466 49.918 51.297 39.0643 51.297 25.6755C51.297 12.2868 40.1466 1.43311 26.3919 1.43311C12.6372 1.43311 1.48682 12.2868 1.48682 25.6755C1.48682 39.0643 12.6372 49.918 26.3919 49.918Z" fill="#C7DBE0" stroke="#0E1F35" stroke-width="2" stroke-miterlimit="10"/>
<path d="M32.1479 12.6716C32.0542 13.4341 31.8243 13.7905 31.0154 13.8402C30.2661 13.8817 29.5083 14.1717 28.8016 14.4618C26.5282 15.4232 24.2038 16.1857 21.7175 16.3101C21.3088 16.3266 20.5766 16.0531 20.534 15.8211C20.4063 15.1414 21.0619 15.158 21.5728 15.1083C21.9644 15.0669 22.3561 14.9923 22.8244 14.926C20.2104 13.0446 17.4943 13.7988 15.9446 15.5144C14.1736 17.487 13.7904 19.8988 14.1055 22.3437C14.3098 23.935 15.0591 25.4517 15.5189 27.0182C15.7999 27.9796 16.1575 28.9576 16.1916 29.9355C16.2937 32.7618 16.3108 35.588 17.4432 38.2484C17.8093 39.1104 18.3713 39.9143 18.9843 40.6436C19.2483 40.9586 19.9209 41.2321 20.2615 41.1078C20.568 41 20.7639 40.3536 20.832 39.9143C21.147 37.95 21.1981 35.9195 21.7175 34.0132C22.3561 31.6677 24.323 30.5903 26.3665 31.071C27.4904 31.3362 28.2482 32.049 28.8016 33.0021C29.8489 34.8089 29.9596 36.8146 30.1129 38.8037C30.1299 39.0689 30.0618 39.3424 30.1299 39.5911C30.2746 40.1215 30.3172 40.9006 30.6834 41.1078C31.3986 41.5139 31.9094 40.8011 32.3181 40.3038C33.9018 38.3727 34.3446 36.0438 34.5575 33.6817C34.6852 32.281 34.583 30.8638 34.7107 29.4548C34.7788 28.6923 34.9832 27.8884 35.3493 27.2171C36.4222 25.2611 37.0097 23.2057 36.9075 20.9928C36.8734 20.2137 37.3417 19.8988 38.0229 19.5341C38.3976 21.1668 38.2528 22.7167 37.9037 24.2417C37.6993 25.1285 37.4269 26.0485 36.9671 26.8193C36.1752 28.1205 35.9709 29.4714 35.9964 30.955C36.056 33.7895 35.741 36.5991 34.5064 39.2098C34.1232 40.0303 33.5613 40.8011 32.9567 41.489C32.0882 42.4753 31.0239 42.7239 30.0703 42.3013C28.989 41.8205 28.8272 40.8757 28.7676 39.8397C28.6739 38.3396 28.5803 36.8312 28.3163 35.3559C28.1801 34.5768 27.7799 33.7895 27.3031 33.143C26.3324 31.8335 24.4507 31.7921 23.6588 33.201C22.9521 34.4525 22.6286 35.9361 22.288 37.3533C22.0921 38.1655 22.1943 39.0524 22.1773 39.906C22.1603 40.942 21.9559 41.8951 20.832 42.3261C19.7081 42.7571 18.8055 42.3344 18.0137 41.547C16.6513 40.1795 15.885 38.4888 15.587 36.6654C15.2464 34.5685 15.0676 32.4385 14.991 30.3168C14.9484 29.1979 14.7015 28.2199 14.1906 27.2254C12.343 23.6532 12.1046 19.9485 13.8586 16.3183C15.5104 12.8871 18.9673 11.6771 22.5008 13.2435C24.5784 14.1635 26.4686 14.2463 28.4866 13.2186C29.5764 12.6633 30.8026 12.3733 32.1479 12.6716Z" fill="#0E1F35"/>
<path d="M39.3938 17.545C35.7581 18.4152 34.4639 20.9265 34.0467 24.2085C33.5443 21.0011 32.3608 18.3738 28.6484 17.5533C32.3778 16.7493 33.5528 14.0889 34.0467 10.8566C34.4724 14.1386 35.6985 16.7328 39.3938 17.545Z" fill="#0E1F35"/>
</svg>
