<svg width="52" height="51" viewBox="0 0 52 51" fill="none" xmlns="http://www.w3.org/2000/svg">
<path d="M25.7212 49.8016C39.2173 49.8016 50.1581 39.0794 50.1581 25.8528C50.1581 12.6263 39.2173 1.90405 25.7212 1.90405C12.225 1.90405 1.28418 12.6263 1.28418 25.8528C1.28418 39.0794 12.225 49.8016 25.7212 49.8016Z" fill="#C7DBE0" stroke="#0E1F35" stroke-width="2" stroke-miterlimit="10"/>
<path d="M22.0229 22.0615C22.0229 21.4699 22.0058 21.0116 22.0229 20.5532C22.0569 19.645 22.5926 19.0367 23.4938 19.0117C24.9818 18.97 26.4783 18.97 27.9663 19.0117C28.8081 19.0367 29.3862 19.6783 29.4543 20.5782C29.4883 21.0366 29.4628 21.4949 29.4628 22.0115C29.7094 22.0365 29.9219 22.0698 30.1345 22.0698C33.3316 22.0865 36.5371 22.0948 39.7341 22.1115C39.9552 22.1115 40.2103 22.0615 40.3803 22.1615C40.5844 22.2782 40.848 22.5281 40.8395 22.7115C40.831 22.8781 40.5164 23.1448 40.3123 23.1781C39.8532 23.2448 39.377 23.1948 38.9093 23.1948C36.0354 23.1948 33.17 23.1864 30.2961 23.1864C30.0495 23.1864 29.8114 23.2031 29.4628 23.2198C29.4628 23.6531 29.4713 24.0531 29.4628 24.4447C29.4288 25.6363 28.8251 26.2613 27.6262 26.2863C26.3593 26.3113 25.0838 26.3113 23.8169 26.2863C22.601 26.2696 22.0314 25.6613 22.0229 24.453C22.0229 24.0531 22.0229 23.6614 22.0229 23.1448C20.4668 23.1448 19.0129 23.1448 17.5589 23.1448C15.5437 23.1448 13.5286 23.1364 11.5134 23.1198C11.1138 23.1198 10.6036 23.2198 10.6036 22.5948C10.5951 21.9782 11.0883 22.0448 11.4964 22.0448C14.6169 22.0448 17.7375 22.0532 20.8495 22.0532C21.2066 22.0615 21.5552 22.0615 22.0229 22.0615ZM25.1434 20.1366C23.0772 19.9199 22.7626 20.2366 23.2047 22.0032C23.8509 22.0032 24.4887 22.0032 25.1774 22.0032C25.1774 21.5115 25.1774 21.0866 25.1774 20.6532C25.1689 20.4949 25.1519 20.3366 25.1434 20.1366ZM28.2639 22.0865C28.4935 20.0366 28.2214 19.7949 26.2572 20.1949C26.2572 20.5449 26.2487 20.9199 26.2572 21.2949C26.2657 21.5365 26.2827 21.7698 26.2997 22.0365C26.5378 22.0532 26.7249 22.0865 26.9119 22.0865C27.3541 22.0865 27.7877 22.0865 28.2639 22.0865ZM23.1962 23.2198C22.7796 25.078 23.2643 25.5363 25.1094 25.0697C25.1094 24.4614 25.1094 23.8614 25.1094 23.2198C24.4376 23.2198 23.8084 23.2198 23.1962 23.2198ZM26.3083 23.2281C26.3083 23.8864 26.3083 24.4947 26.3083 25.0947C28.2299 25.478 28.672 25.0363 28.2129 23.2281C27.5922 23.2281 26.9715 23.2281 26.3083 23.2281Z" fill="#0E1F35"/>
<path d="M35.6699 24.1364C34.3944 26.4113 34.658 28.7778 34.4625 31.0694C34.3094 32.911 33.9693 34.7275 33.0085 36.3525C32.7109 36.8608 32.3198 37.3357 31.9286 37.7857C31.3079 38.5023 30.4747 38.7107 29.6074 38.3857C28.7146 38.0524 28.536 37.2607 28.468 36.3941C28.349 34.9442 28.1704 33.5026 27.9834 32.061C27.9494 31.8027 27.8048 31.5527 27.6858 31.311C27.2946 30.4778 26.7335 29.8361 25.6961 29.8528C24.6248 29.8611 23.936 30.5278 23.715 31.4194C23.3408 32.9276 23.1028 34.4775 22.9497 36.0275C22.8562 37.0024 22.8732 37.969 21.7933 38.419C20.8836 38.8023 19.9397 38.4023 19.081 37.3524C17.8226 35.8191 17.3379 33.9859 17.0828 32.0943C16.9128 30.8361 16.8617 29.5528 16.8872 28.2862C16.9042 27.3279 16.7257 26.478 16.241 25.6613C15.986 25.228 15.8159 24.7447 15.6118 24.2697C16.3771 24.0281 16.7597 24.2364 17.1168 24.8947C17.7205 26.0113 17.9841 27.1196 17.9671 28.3862C17.9331 30.6944 18.0861 32.9943 19.0639 35.1442C19.37 35.8191 19.8292 36.4524 20.3309 37.0191C20.5434 37.2607 21.0876 37.4274 21.3937 37.3274C21.6233 37.2524 21.8018 36.7441 21.8528 36.4024C22.1079 34.7275 22.21 33.0276 22.5586 31.3694C22.7967 30.2611 23.5279 29.3611 24.6928 28.9528C26.0617 28.4695 27.4052 28.9028 28.2639 30.1028C29.1057 31.2694 29.3778 32.6276 29.5224 34.0026C29.6074 34.8109 29.5479 35.6275 29.6414 36.4358C29.6754 36.7691 29.8625 37.2941 30.0836 37.3524C30.3982 37.4357 30.8998 37.2607 31.1549 37.0191C32.2177 36.0358 32.7789 34.7359 32.9745 33.3609C33.2381 31.5194 33.4166 29.6528 33.4506 27.8029C33.4676 26.528 34.0288 25.5113 34.6325 24.4864C34.7516 24.2447 35.3042 24.2447 35.6699 24.1364Z" fill="#0E1F35"/>
<path d="M23.6468 15.2035C20.5008 13.0703 15.9688 14.6619 16.0029 21.0033C15.7138 21.0033 15.4247 21.0033 15.008 21.0033C14.974 19.095 15.2036 17.2618 16.343 15.6369C17.95 13.3453 20.4328 12.5287 23.0006 13.687C24.8542 14.5203 26.5208 14.5869 28.3659 13.6953C31.3333 12.2704 34.6579 13.7786 35.8568 17.1868C36.2734 18.3784 36.3415 19.7033 36.5795 21.0449C36.0269 21.0449 35.7123 21.0449 35.4997 21.0449C35.2446 19.7783 35.1341 18.5284 34.7345 17.3701C34.2073 15.8369 33.1189 14.7619 31.4354 14.3536C30.4661 14.1203 29.5988 14.3953 28.6975 14.6869C26.9289 15.2702 25.1348 15.7869 23.3407 16.3035C22.9751 16.4118 22.567 16.4535 22.1929 16.3952C21.9633 16.3618 21.7592 16.0952 21.5467 15.9368C21.7337 15.7452 21.8783 15.4535 22.0993 15.3869C22.5585 15.2702 23.0346 15.2702 23.6468 15.2035Z" fill="#0E1F35"/>
</svg>
