<svg width="31" height="32" viewBox="0 0 31 32" fill="none" xmlns="http://www.w3.org/2000/svg">
<path d="M30.21 16.1095C30.21 18.2395 30.29 20.3795 30.19 22.5095C29.99 27.0695 26.2 30.9195 21.63 31.0595C17.31 31.1895 12.99 31.1895 8.67003 31.0495C4.43003 30.9095 0.630026 27.5895 0.350026 23.3495C0.0200258 18.4995 2.58386e-05 13.5995 0.350026 8.74948C0.670026 4.33948 4.69003 1.00948 9.11003 0.939484C13.18 0.879484 17.24 0.859484 21.31 0.939484C26.07 1.03948 29.98 4.90948 30.2 9.68948C30.3 11.8395 30.22 13.9795 30.21 16.1095C30.22 16.1095 30.22 16.1095 30.21 16.1095ZM15.14 4.15948C13.31 4.15948 11.48 4.14948 9.66003 4.15948C5.92003 4.18948 3.33002 6.73948 3.30002 10.4595C3.27002 14.1695 3.28002 17.8695 3.30002 21.5795C3.32002 25.2595 5.76003 27.8395 9.45003 27.9395C13.26 28.0395 17.07 28.0395 20.87 27.9395C24.51 27.8395 27.05 25.3195 27.12 21.7995C27.2 17.9395 27.2 14.0795 27.11 10.2195C27.03 6.77948 24.35 4.21948 20.93 4.16948C19 4.12948 17.07 4.15948 15.14 4.15948Z" fill="#0E1F35"/>
<path d="M22.8299 16.0295C22.7999 20.3695 19.3399 23.7995 15.0799 23.7395C10.9199 23.6795 7.54991 20.2395 7.56991 16.0995C7.58991 11.7495 11.0599 8.29954 15.3199 8.38954C19.4899 8.46954 22.8599 11.8995 22.8299 16.0295ZM15.1499 20.8495C17.8199 20.8695 19.8899 18.8295 19.9299 16.1595C19.9699 13.4295 17.8699 11.2495 15.1999 11.2395C12.6399 11.2295 10.3899 13.4095 10.3299 15.9495C10.2899 18.5895 12.4899 20.8295 15.1499 20.8495Z" fill="#97C9DD"/>
</svg>
