<?xml version="1.0" encoding="UTF-8"?>
<svg xmlns="http://www.w3.org/2000/svg" xmlns:xlink="http://www.w3.org/1999/xlink" width="59px" height="60px" viewBox="0 0 59 60" version="1.1">
<g id="surface1">
<path style="fill:none;stroke-width:2;stroke-linecap:butt;stroke-linejoin:miter;stroke:rgb(5.490196%,12.156863%,20.784314%);stroke-opacity:1;stroke-miterlimit:10;" d="M 29.371094 58.230469 C 45.039062 58.230469 57.738281 45.53125 57.738281 29.859375 C 57.738281 14.191406 45.039062 1.488281 29.371094 1.488281 C 13.699219 1.488281 1 14.191406 1 29.859375 C 1 45.53125 13.699219 58.230469 29.371094 58.230469 Z M 29.371094 58.230469 "/>
<path style=" stroke:none;fill-rule:nonzero;fill:rgb(5.490196%,12.156863%,20.784314%);fill-opacity:1;" d="M 40.109375 42.390625 L 17.871094 42.390625 C 16.828125 42.390625 15.988281 41.609375 15.988281 40.648438 L 15.988281 20.121094 C 15.988281 19.160156 16.839844 18.378906 17.871094 18.378906 L 40.109375 18.378906 C 41.148438 18.378906 41.988281 19.160156 41.988281 20.121094 L 41.988281 40.640625 C 41.988281 41.601562 41.148438 42.378906 40.109375 42.378906 Z M 40.109375 42.390625 "/>
<path style=" stroke:none;fill-rule:nonzero;fill:rgb(59.215689%,78.823531%,86.666667%);fill-opacity:1;" d="M 37.761719 23.640625 C 38.539062 23.640625 39.179688 23 39.179688 22.21875 C 39.179688 21.441406 38.539062 20.800781 37.761719 20.800781 C 36.980469 20.800781 36.339844 21.441406 36.339844 22.21875 C 36.339844 23 36.980469 23.640625 37.761719 23.640625 Z M 37.761719 23.640625 "/>
<path style=" stroke:none;fill-rule:nonzero;fill:rgb(5.490196%,12.156863%,20.784314%);fill-opacity:1;" d="M 44.03125 30.480469 C 44.03125 32.609375 44.109375 34.75 44.011719 36.878906 C 43.808594 41.441406 40.019531 45.289062 35.449219 45.429688 C 31.128906 45.558594 26.808594 45.558594 22.488281 45.421875 C 18.25 45.28125 14.449219 41.960938 14.171875 37.71875 C 13.839844 32.871094 13.820312 27.96875 14.171875 23.121094 C 14.488281 18.710938 18.511719 15.378906 22.929688 15.308594 C 27 15.25 31.058594 15.230469 35.128906 15.308594 C 39.890625 15.410156 43.800781 19.28125 44.019531 24.058594 C 44.121094 26.210938 44.039062 28.351562 44.019531 30.480469 Z M 28.960938 18.53125 C 27.128906 18.53125 25.300781 18.53125 23.480469 18.53125 C 19.738281 18.558594 17.148438 21.109375 17.121094 24.828125 C 17.089844 28.539062 17.101562 32.238281 17.121094 35.949219 C 17.140625 39.628906 19.578125 42.210938 23.269531 42.308594 C 27.078125 42.410156 30.890625 42.410156 34.691406 42.308594 C 38.328125 42.210938 40.871094 39.691406 40.941406 36.171875 C 41.019531 32.308594 41.019531 28.449219 40.929688 24.589844 C 40.851562 21.148438 38.171875 18.589844 34.75 18.539062 C 32.820312 18.5 30.890625 18.539062 28.960938 18.539062 Z M 28.960938 18.53125 "/>
<path style=" stroke:none;fill-rule:nonzero;fill:rgb(59.215689%,78.823531%,86.666667%);fill-opacity:1;" d="M 36.648438 30.398438 C 36.621094 34.738281 33.160156 38.171875 28.898438 38.109375 C 24.738281 38.050781 21.371094 34.609375 21.390625 30.46875 C 21.410156 26.121094 24.878906 22.671875 29.140625 22.761719 C 33.308594 22.839844 36.679688 26.269531 36.648438 30.398438 Z M 28.96875 35.21875 C 31.640625 35.238281 33.710938 33.199219 33.75 30.53125 C 33.789062 27.800781 31.691406 25.621094 29.019531 25.609375 C 26.460938 25.601562 24.210938 27.78125 24.148438 30.320312 C 24.109375 32.960938 26.308594 35.199219 28.96875 35.21875 Z M 28.96875 35.21875 "/>
</g>
</svg>
