<svg width="59" height="59" viewBox="0 0 59 59" fill="none" xmlns="http://www.w3.org/2000/svg">
<path d="M29.38 19.9503C32.22 19.9503 35.06 19.9403 37.9 19.9503C40.93 19.9603 42.92 21.9203 42.95 24.9403C42.97 27.9103 42.97 30.8803 42.95 33.8503C42.92 36.7503 40.87 38.7903 37.97 38.7903C32.2 38.8003 26.43 38.8003 20.67 38.7903C18 38.7803 15.87 36.7703 15.82 34.1103C15.76 30.9703 15.76 27.8303 15.81 24.6803C15.85 21.9903 17.9 19.9903 20.6 19.9603C23.53 19.9203 26.46 19.9503 29.38 19.9503ZM25.93 34.7603C28.89 32.9303 31.62 31.2403 34.55 29.4303C31.59 27.6003 28.85 25.9103 25.93 24.1103C25.93 27.7503 25.93 31.1203 25.93 34.7603Z" fill="#0E1F35"/>
<path d="M29.37 57.74C45.0383 57.74 57.74 45.0383 57.74 29.37C57.74 13.7017 45.0383 1 29.37 1C13.7017 1 1 13.7017 1 29.37C1 45.0383 13.7017 57.74 29.37 57.74Z" stroke="#0E1F35" stroke-width="2" stroke-miterlimit="10"/>
</svg>
