<svg width="59" height="59" viewBox="0 0 59 59" fill="none" xmlns="http://www.w3.org/2000/svg">
<path d="M36.8399 14.5992C36.8399 16.2192 36.8399 17.6392 36.8399 19.1892C35.7499 19.1892 34.7599 19.1592 33.7699 19.1992C32.4199 19.2492 31.6199 19.9292 31.5899 21.3192C31.5599 22.5492 31.5799 23.7892 31.5799 25.1992C33.3599 25.1992 34.9799 25.1992 36.8299 25.1992C36.6399 27.0392 36.4699 28.6792 36.2899 30.4592C34.7099 30.4592 33.2299 30.4592 31.5899 30.4592C31.5399 31.1592 31.4799 31.7392 31.4799 32.3092C31.4699 35.7492 31.4199 39.1892 31.4899 42.6192C31.5099 43.8192 31.0899 44.2092 29.9399 44.1292C28.8099 44.0492 27.6699 44.1092 26.2899 44.1092C26.2899 43.2392 26.2899 42.5092 26.2899 41.7892C26.2899 38.4992 26.2499 35.2092 26.3199 31.9292C26.3399 30.7992 25.9599 30.4092 24.8599 30.5092C23.9299 30.5892 22.9799 30.5292 21.8999 30.5292C21.8999 28.7892 21.8999 27.1292 21.8999 25.2092C22.9999 25.2092 24.1199 25.1792 25.2399 25.2192C26.0899 25.2492 26.3899 24.8992 26.3599 24.0792C26.3099 22.8892 26.3399 21.6892 26.3499 20.4892C26.3699 17.1592 28.8399 14.6492 32.1699 14.6092C33.7099 14.5892 35.2399 14.5992 36.8399 14.5992Z" fill="#0E1F35"/>
<path d="M29.37 57.74C45.0383 57.74 57.74 45.0383 57.74 29.37C57.74 13.7017 45.0383 1 29.37 1C13.7017 1 1 13.7017 1 29.37C1 45.0383 13.7017 57.74 29.37 57.74Z" stroke="#0E1F35" stroke-width="2" stroke-miterlimit="10"/>
</svg>
