<svg width="59" height="59" viewBox="0 0 59 59" fill="none" xmlns="http://www.w3.org/2000/svg">
<path d="M44.3779 19.6807C43.7679 20.4107 43.1679 21.1307 42.3579 22.1007C43.3479 21.9707 44.108 21.8707 45.188 21.7207C44.648 22.2807 44.3479 22.7807 43.8979 23.0107C42.7879 23.5807 42.5279 24.4007 42.4479 25.6307C42.0279 31.9207 39.3179 36.9207 33.4779 39.6907C28.2779 42.1607 23.0379 41.2507 17.8979 39.1507C20.4679 38.8807 22.9379 38.4007 25.2679 36.6407C23.0379 35.8607 20.948 35.1507 20.228 32.6907C20.938 32.6207 21.5579 32.5507 22.5979 32.4507C20.3779 30.9507 18.268 29.8007 18.118 27.0307C18.958 27.1607 19.7179 27.2707 20.9479 27.4507C18.8679 25.1207 17.6679 22.9307 18.9979 20.0707C22.4779 22.8507 25.8779 25.8007 30.8279 25.4507C30.9579 24.5507 31.028 23.7507 31.188 22.9707C31.948 19.1707 36.258 17.1807 39.468 19.3707C41.008 20.4207 42.2279 20.2807 43.6779 19.6107C43.8279 19.5407 44.0079 19.5107 44.1679 19.4607C44.2379 19.5307 44.3079 19.6107 44.3779 19.6807Z" fill="#0E1F35"/>
<path d="M29.3681 57.74C45.0364 57.74 57.7381 45.0383 57.7381 29.37C57.7381 13.7017 45.0364 1 29.3681 1C13.6997 1 0.998047 13.7017 0.998047 29.37C0.998047 45.0383 13.6997 57.74 29.3681 57.74Z" stroke="#0E1F35" stroke-width="2" stroke-miterlimit="10"/>
</svg>
